<?xml version="1.0" encoding="UTF-8"?>
<!DOCTYPE svg PUBLIC "-//W3C//DTD SVG 1.1//EN" "http://www.w3.org/Graphics/SVG/1.1/DTD/svg11.dtd">
<!-- Creator: CorelDRAW 2019 (64-Bit) -->
<svg xmlns="http://www.w3.org/2000/svg" xml:space="preserve" width="300px" height="166px" version="1.1" style="shape-rendering:geometricPrecision; text-rendering:geometricPrecision; image-rendering:optimizeQuality; fill-rule:evenodd; clip-rule:evenodd"
viewBox="0 0 300 165.714"
 xmlns:xlink="http://www.w3.org/1999/xlink"
 xmlns:xodm="http://www.corel.com/coreldraw/odm/2003">
 <defs>
  <style type="text/css">
   <![CDATA[
    .fil3 {fill:#004360}
    .fil2 {fill:#85C9F0}
    .fil6 {fill:#004360;fill-rule:nonzero}
    .fil5 {fill:#1F1B20;fill-rule:nonzero}
    .fil0 {fill:#2B2A29;fill-rule:nonzero}
    .fil1 {fill:#FEFEFE;fill-rule:nonzero}
    .fil4 {fill:url(#id0)}
   ]]>
  </style>
  <linearGradient id="id0" gradientUnits="userSpaceOnUse" x1="2.097" y1="46.972" x2="122.505" y2="142.73">
   <stop offset="0" style="stop-opacity:1; stop-color:#004360"/>
   <stop offset="1" style="stop-opacity:1; stop-color:#007AB4"/>
  </linearGradient>
 </defs>
 <g id="Layer_x0020_1">
  <metadata id="CorelCorpID_0Corel-Layer"/>
  <g id="_2742080518080">
   <path class="fil0" d="M66.773 82.951l0 -9.428 21.641 0 0 19.33c-4.137,2.819 -7.802,4.752 -10.989,5.764 -3.189,1.026 -6.97,1.533 -11.341,1.533 -5.383,0 -9.765,-0.919 -13.153,-2.757 -3.4,-1.826 -6.028,-4.561 -7.888,-8.192 -1.868,-3.632 -2.807,-7.792 -2.807,-12.49 0,-4.953 1.025,-9.26 3.061,-12.923 2.048,-3.65 5.036,-6.427 8.974,-8.33 3.073,-1.467 7.211,-2.196 12.406,-2.196 5.004,0 8.752,0.454 11.243,1.363 2.481,0.907 4.539,2.312 6.187,4.222 1.637,1.901 2.873,4.319 3.696,7.255l-13.515 2.407c-0.559,-1.713 -1.51,-3.019 -2.839,-3.929 -1.321,-0.907 -3.02,-1.361 -5.079,-1.361 -3.073,0 -5.521,1.065 -7.348,3.2 -1.826,2.143 -2.745,5.511 -2.745,10.134 0,4.908 0.93,8.414 2.777,10.516 1.838,2.101 4.412,3.157 7.718,3.157 1.563,0 3.061,-0.234 4.476,-0.687 1.425,-0.454 3.061,-1.224 4.889,-2.313l0 -4.275 -9.365 0 0.001 0 0 0z"/>
   <path class="fil0" d="M42.168 41.211c-0.014,0.022 -0.021,0.057 -0.028,0.107 -0.005,0.048 -0.005,0.097 0,0.143 0.007,0.052 0.014,0.087 0.028,0.109 0.146,-0.004 0.314,-0.006 0.504,-0.016 0.191,-0.007 0.394,-0.012 0.608,-0.012 0.3,0 0.555,0.007 0.767,0.012 0.213,0.01 0.379,0.012 0.499,0.016 0.011,-0.023 0.018,-0.057 0.025,-0.109 0.007,-0.051 0.01,-0.098 0.01,-0.149 0,-0.047 -0.004,-0.081 -0.015,-0.101 -0.087,-0.009 -0.169,-0.024 -0.25,-0.04 -0.079,-0.015 -0.157,-0.033 -0.234,-0.047 -0.083,-0.019 -0.144,-0.047 -0.183,-0.078 -0.043,-0.029 -0.069,-0.066 -0.082,-0.109 -0.012,-0.044 -0.017,-0.091 -0.015,-0.142 0,-0.044 0.013,-0.11 0.036,-0.194 0.023,-0.087 0.054,-0.186 0.093,-0.301 0.037,-0.111 0.079,-0.231 0.124,-0.357 0.047,-0.126 0.091,-0.252 0.134,-0.378 0.009,-0.019 0.025,-0.039 0.045,-0.061 0.021,-0.022 0.04,-0.031 0.062,-0.035l1.596 0c0.016,0.004 0.033,0.009 0.052,0.024 0.019,0.015 0.033,0.031 0.044,0.047 0.035,0.086 0.075,0.187 0.119,0.306 0.044,0.118 0.087,0.242 0.131,0.368 0.044,0.129 0.085,0.253 0.12,0.367 0.038,0.118 0.066,0.219 0.085,0.303 0.011,0.024 0.011,0.058 -0.002,0.096 -0.011,0.04 -0.043,0.075 -0.095,0.106 -0.05,0.028 -0.119,0.053 -0.207,0.071 -0.09,0.017 -0.187,0.038 -0.296,0.055 -0.009,0.02 -0.014,0.054 -0.016,0.102 -0.004,0.049 -0.002,0.097 0.003,0.149 0.007,0.05 0.013,0.086 0.023,0.107 0.103,0 0.222,-0.004 0.356,-0.008 0.137,-0.004 0.293,-0.008 0.471,-0.012 0.179,-0.007 0.384,-0.007 0.614,-0.007 0.343,0 0.626,0.006 0.851,0.013 0.225,0.008 0.4,0.011 0.523,0.014 0.009,-0.011 0.02,-0.033 0.025,-0.066 0.01,-0.033 0.015,-0.069 0.018,-0.108 0.004,-0.043 0.004,-0.079 0.004,-0.112 -0.004,-0.035 -0.007,-0.059 -0.018,-0.072 -0.18,-0.024 -0.327,-0.054 -0.436,-0.083 -0.112,-0.032 -0.203,-0.079 -0.271,-0.142 -0.07,-0.06 -0.135,-0.148 -0.192,-0.264 -0.058,-0.114 -0.125,-0.268 -0.204,-0.46 -0.059,-0.143 -0.129,-0.323 -0.211,-0.537 -0.079,-0.215 -0.17,-0.451 -0.263,-0.709 -0.095,-0.255 -0.191,-0.52 -0.288,-0.789 -0.098,-0.272 -0.193,-0.534 -0.285,-0.788 -0.093,-0.253 -0.176,-0.487 -0.252,-0.697 -0.076,-0.212 -0.14,-0.385 -0.19,-0.524 -0.029,-0.089 -0.06,-0.186 -0.089,-0.289 -0.031,-0.104 -0.06,-0.202 -0.085,-0.29 -0.053,0.005 -0.116,0.008 -0.19,0.013 -0.076,0.004 -0.163,0.007 -0.266,0.007 -0.087,0 -0.17,-0.004 -0.247,-0.007 -0.079,-0.005 -0.147,-0.008 -0.207,-0.013 -0.009,0.06 -0.026,0.128 -0.049,0.21 -0.023,0.081 -0.046,0.163 -0.074,0.25 -0.028,0.084 -0.054,0.163 -0.081,0.237 -0.038,0.111 -0.092,0.259 -0.159,0.445 -0.066,0.186 -0.142,0.392 -0.229,0.626 -0.086,0.233 -0.18,0.479 -0.278,0.737 -0.096,0.262 -0.198,0.523 -0.299,0.788 -0.103,0.266 -0.205,0.519 -0.302,0.765 -0.099,0.248 -0.193,0.475 -0.28,0.681 -0.069,0.163 -0.132,0.29 -0.194,0.389 -0.06,0.099 -0.127,0.175 -0.201,0.232 -0.076,0.054 -0.169,0.098 -0.281,0.129 -0.113,0.028 -0.255,0.059 -0.427,0.083l0.001 -0.001zm2.901 -4.236c0.004,-0.006 0.012,-0.008 0.025,-0.008 0.01,-0.003 0.017,-0.003 0.023,-0.003 0.038,0.099 0.08,0.217 0.127,0.351 0.048,0.132 0.096,0.27 0.147,0.416 0.053,0.147 0.102,0.29 0.149,0.43 0.049,0.142 0.092,0.272 0.131,0.387 0.04,0.116 0.071,0.212 0.096,0.283 0,0.012 -0.005,0.024 -0.014,0.037 -0.007,0.014 -0.017,0.02 -0.026,0.021 -0.047,0.006 -0.125,0.009 -0.238,0.009 -0.114,0.003 -0.243,0.003 -0.391,0.003 -0.147,0 -0.273,0 -0.378,-0.003 -0.106,0 -0.185,-0.003 -0.241,-0.009 -0.014,-0.002 -0.024,-0.016 -0.031,-0.031 -0.004,-0.015 -0.008,-0.036 -0.008,-0.054l0.63 -1.829 -0.002 0 0.001 0zm8.921 0.271c0.005,0.012 0.026,0.023 0.059,0.023 0.036,0 0.075,-0.001 0.122,-0.011 0.045,-0.008 0.085,-0.017 0.123,-0.031 0.036,-0.011 0.061,-0.026 0.072,-0.04 -0.006,-0.162 -0.008,-0.34 -0.005,-0.526 0.004,-0.186 0.009,-0.371 0.018,-0.553 0.007,-0.181 0.016,-0.344 0.027,-0.489 -0.06,0 -0.132,-0.003 -0.215,-0.01 -0.085,-0.004 -0.173,-0.009 -0.269,-0.021 -0.095,-0.007 -0.189,-0.016 -0.281,-0.026 -0.189,-0.017 -0.379,-0.033 -0.572,-0.05 -0.192,-0.016 -0.385,-0.027 -0.579,-0.028 -0.402,0.002 -0.763,0.037 -1.091,0.11 -0.328,0.073 -0.621,0.174 -0.882,0.307 -0.266,0.138 -0.498,0.301 -0.694,0.489 -0.2,0.19 -0.365,0.4 -0.492,0.63 -0.13,0.23 -0.23,0.474 -0.294,0.732 -0.065,0.256 -0.097,0.52 -0.097,0.789 0.004,0.689 0.141,1.272 0.412,1.743 0.271,0.473 0.664,0.828 1.176,1.067 0.512,0.242 1.132,0.361 1.856,0.363 0.225,-0.002 0.43,-0.014 0.613,-0.038 0.182,-0.027 0.345,-0.057 0.489,-0.095 0.143,-0.036 0.266,-0.072 0.369,-0.11 0.065,-0.041 0.139,-0.114 0.216,-0.22 0.079,-0.106 0.154,-0.225 0.233,-0.361 0.076,-0.134 0.142,-0.268 0.205,-0.403 0.06,-0.135 0.106,-0.254 0.139,-0.36 -0.018,-0.028 -0.046,-0.059 -0.085,-0.089 -0.037,-0.029 -0.078,-0.054 -0.12,-0.075 -0.044,-0.022 -0.076,-0.035 -0.104,-0.038 -0.078,0.131 -0.161,0.256 -0.248,0.379 -0.086,0.125 -0.173,0.238 -0.261,0.337 -0.085,0.101 -0.168,0.183 -0.246,0.251 -0.138,0.116 -0.288,0.193 -0.452,0.236 -0.164,0.044 -0.33,0.066 -0.496,0.065 -0.323,0 -0.611,-0.055 -0.86,-0.159 -0.249,-0.103 -0.464,-0.247 -0.642,-0.427 -0.18,-0.182 -0.324,-0.386 -0.438,-0.623 -0.115,-0.23 -0.199,-0.479 -0.252,-0.74 -0.054,-0.261 -0.082,-0.525 -0.082,-0.788 0.003,-0.562 0.08,-1.035 0.232,-1.416 0.151,-0.379 0.366,-0.666 0.644,-0.86 0.28,-0.192 0.61,-0.289 0.993,-0.289 0.208,-0.002 0.414,0.016 0.612,0.053 0.201,0.037 0.382,0.095 0.548,0.178 0.118,0.058 0.213,0.132 0.288,0.22 0.07,0.089 0.133,0.203 0.18,0.348 0.049,0.143 0.093,0.328 0.132,0.556l-0.001 -0.001 0 0.001zm0.841 3.965c-0.014,0.022 -0.021,0.057 -0.028,0.107 -0.005,0.048 -0.005,0.097 0,0.143 0.007,0.052 0.014,0.087 0.028,0.109 0.146,-0.004 0.315,-0.006 0.506,-0.016 0.19,-0.007 0.392,-0.012 0.606,-0.012 0.298,0 0.555,0.007 0.766,0.012 0.213,0.01 0.379,0.012 0.5,0.016 0.01,-0.023 0.017,-0.057 0.025,-0.109 0.006,-0.051 0.009,-0.098 0.009,-0.149 0,-0.047 -0.004,-0.081 -0.015,-0.101 -0.087,-0.009 -0.168,-0.024 -0.249,-0.04 -0.079,-0.015 -0.157,-0.033 -0.234,-0.047 -0.082,-0.019 -0.144,-0.047 -0.184,-0.078 -0.042,-0.029 -0.068,-0.066 -0.08,-0.109 -0.012,-0.044 -0.019,-0.091 -0.016,-0.142 0,-0.044 0.012,-0.11 0.036,-0.194 0.023,-0.087 0.053,-0.186 0.091,-0.301 0.039,-0.111 0.081,-0.231 0.125,-0.357 0.045,-0.126 0.091,-0.252 0.134,-0.378 0.01,-0.019 0.026,-0.039 0.046,-0.061 0.02,-0.022 0.04,-0.031 0.061,-0.035l1.596 0c0.016,0.004 0.033,0.009 0.051,0.024 0.02,0.015 0.034,0.031 0.045,0.047 0.035,0.086 0.075,0.187 0.118,0.306 0.043,0.118 0.087,0.242 0.13,0.368 0.046,0.129 0.087,0.253 0.123,0.367 0.036,0.118 0.064,0.219 0.084,0.303 0.011,0.024 0.011,0.058 -0.002,0.096 -0.011,0.04 -0.044,0.075 -0.095,0.106 -0.051,0.028 -0.119,0.053 -0.208,0.071 -0.088,0.017 -0.187,0.038 -0.295,0.055 -0.01,0.02 -0.015,0.054 -0.015,0.102 -0.004,0.049 -0.003,0.097 0.001,0.149 0.007,0.05 0.014,0.086 0.023,0.107 0.103,0 0.221,-0.004 0.356,-0.008 0.136,-0.004 0.292,-0.008 0.471,-0.012 0.179,-0.007 0.384,-0.007 0.615,-0.007 0.342,0 0.625,0.006 0.85,0.013 0.226,0.008 0.399,0.011 0.523,0.014 0.011,-0.011 0.02,-0.033 0.026,-0.066 0.008,-0.033 0.015,-0.069 0.018,-0.108 0.003,-0.043 0.004,-0.079 0.003,-0.112 -0.003,-0.035 -0.008,-0.059 -0.017,-0.072 -0.182,-0.024 -0.328,-0.054 -0.437,-0.083 -0.111,-0.032 -0.202,-0.079 -0.272,-0.142 -0.069,-0.06 -0.134,-0.148 -0.191,-0.264 -0.058,-0.114 -0.125,-0.268 -0.204,-0.46 -0.06,-0.143 -0.128,-0.323 -0.21,-0.537 -0.081,-0.215 -0.17,-0.451 -0.263,-0.709 -0.095,-0.255 -0.191,-0.52 -0.288,-0.789 -0.098,-0.272 -0.194,-0.534 -0.286,-0.788 -0.091,-0.253 -0.176,-0.487 -0.252,-0.697 -0.076,-0.212 -0.14,-0.385 -0.189,-0.524 -0.031,-0.089 -0.061,-0.186 -0.09,-0.289 -0.031,-0.104 -0.06,-0.202 -0.084,-0.29 -0.053,0.005 -0.117,0.008 -0.19,0.013 -0.076,0.004 -0.163,0.007 -0.265,0.007 -0.087,0 -0.171,-0.004 -0.249,-0.007 -0.077,-0.005 -0.147,-0.008 -0.205,-0.013 -0.01,0.06 -0.028,0.128 -0.049,0.21 -0.023,0.081 -0.047,0.163 -0.073,0.25 -0.029,0.084 -0.056,0.163 -0.082,0.237 -0.039,0.111 -0.091,0.259 -0.16,0.445 -0.066,0.186 -0.142,0.392 -0.228,0.626 -0.087,0.233 -0.179,0.479 -0.278,0.737 -0.098,0.262 -0.198,0.523 -0.301,0.788 -0.102,0.266 -0.202,0.519 -0.3,0.765 -0.1,0.248 -0.194,0.475 -0.281,0.681 -0.068,0.163 -0.132,0.29 -0.194,0.389 -0.058,0.099 -0.127,0.175 -0.2,0.232 -0.077,0.054 -0.17,0.098 -0.282,0.129 -0.112,0.028 -0.255,0.059 -0.427,0.083l0.002 0 0 -0.001zm2.901 -4.236c0.006,-0.006 0.012,-0.008 0.025,-0.008 0.009,-0.003 0.017,-0.003 0.023,-0.003 0.038,0.099 0.081,0.217 0.127,0.351 0.047,0.132 0.096,0.27 0.148,0.416 0.052,0.147 0.1,0.29 0.147,0.43 0.049,0.142 0.093,0.272 0.131,0.387 0.04,0.116 0.071,0.212 0.096,0.283 0,0.012 -0.005,0.024 -0.013,0.037 -0.007,0.014 -0.017,0.02 -0.027,0.021 -0.046,0.006 -0.124,0.009 -0.238,0.009 -0.112,0.003 -0.242,0.003 -0.39,0.003 -0.145,0 -0.273,0 -0.379,-0.003 -0.107,0 -0.186,-0.003 -0.241,-0.009 -0.014,-0.002 -0.023,-0.016 -0.029,-0.031 -0.005,-0.015 -0.009,-0.036 -0.009,-0.054l0.628 -1.829 0.001 0 0 0zm3.754 -1.008c0.063,0.011 0.128,0.021 0.193,0.034 0.069,0.011 0.131,0.023 0.191,0.034 0.058,0.013 0.107,0.027 0.147,0.041 0.079,0.02 0.137,0.05 0.178,0.082 0.045,0.033 0.076,0.077 0.095,0.135 0.02,0.057 0.032,0.129 0.037,0.216 0.011,0.216 0.02,0.49 0.02,0.827 0,0.336 0,0.73 -0.001,1.181 0,0.319 0,0.618 0,0.899 -0.001,0.282 -0.004,0.529 -0.008,0.744 -0.001,0.213 -0.005,0.381 -0.011,0.5 -0.013,0.139 -0.047,0.243 -0.099,0.313 -0.053,0.072 -0.127,0.118 -0.23,0.14 -0.06,0.017 -0.119,0.031 -0.178,0.042 -0.057,0.014 -0.119,0.024 -0.188,0.033 -0.066,0.007 -0.146,0.016 -0.233,0.023 -0.012,0.007 -0.023,0.024 -0.028,0.056 -0.004,0.03 -0.007,0.065 -0.007,0.105 0,0.042 0.004,0.08 0.01,0.114 0.005,0.037 0.013,0.065 0.024,0.084l0.405 0c0.296,0.002 0.58,0.01 0.856,0.024 0.276,0.012 0.535,0.023 0.778,0.035 0.242,0.011 0.458,0.017 0.649,0.018 0.345,0.001 0.671,-0.023 0.978,-0.074 0.306,-0.046 0.598,-0.127 0.868,-0.242 0.273,-0.113 0.527,-0.265 0.765,-0.457 0.198,-0.155 0.378,-0.348 0.539,-0.579 0.159,-0.232 0.29,-0.501 0.386,-0.807 0.098,-0.309 0.15,-0.654 0.151,-1.038 0,-0.298 -0.04,-0.586 -0.113,-0.853 -0.076,-0.272 -0.186,-0.521 -0.332,-0.749 -0.144,-0.229 -0.323,-0.432 -0.533,-0.609 -0.261,-0.211 -0.562,-0.37 -0.902,-0.468 -0.343,-0.101 -0.729,-0.154 -1.158,-0.152 -0.203,0 -0.382,0.002 -0.536,0.005 -0.153,0 -0.295,0.004 -0.428,0.008 -0.132,0 -0.267,0.006 -0.405,0.007 -0.139,0.005 -0.295,0.008 -0.47,0.008 -0.057,0 -0.135,0 -0.232,-0.002 -0.098,-0.001 -0.205,-0.006 -0.32,-0.007 -0.115,-0.001 -0.229,-0.007 -0.341,-0.009 -0.114,-0.004 -0.211,-0.005 -0.298,-0.005 -0.087,-0.003 -0.152,-0.005 -0.193,-0.005 -0.011,0.02 -0.023,0.051 -0.033,0.101 -0.008,0.05 -0.013,0.097 -0.013,0.146 0,0.047 0.005,0.082 0.019,0.101l0.001 0 0 0zm2.128 4.653c-0.007,-0.066 -0.012,-0.165 -0.017,-0.3 -0.004,-0.135 -0.009,-0.295 -0.009,-0.48 -0.003,-0.186 -0.004,-0.385 -0.004,-0.601 0,-0.218 0,-0.435 0,-0.663 0,-0.174 0,-0.356 0,-0.544 0,-0.19 0,-0.379 0.001,-0.568 0,-0.187 0.003,-0.366 0.004,-0.529 0,-0.166 0.004,-0.312 0.006,-0.44 0.003,-0.124 0.007,-0.22 0.009,-0.286 0,-0.028 0.009,-0.052 0.024,-0.079 0.015,-0.025 0.032,-0.046 0.054,-0.055 0.031,-0.015 0.082,-0.029 0.151,-0.036 0.069,-0.008 0.14,-0.015 0.216,-0.015 0.255,-0.001 0.499,0.027 0.735,0.081 0.234,0.057 0.449,0.148 0.639,0.277 0.225,0.16 0.415,0.353 0.564,0.584 0.15,0.229 0.264,0.484 0.339,0.764 0.076,0.28 0.113,0.57 0.113,0.873 0,0.331 -0.027,0.623 -0.079,0.877 -0.051,0.257 -0.125,0.482 -0.22,0.673 -0.093,0.194 -0.203,0.36 -0.33,0.506 -0.118,0.134 -0.24,0.242 -0.367,0.32 -0.123,0.081 -0.251,0.138 -0.387,0.172 -0.132,0.035 -0.271,0.05 -0.417,0.05 -0.082,0 -0.177,-0.008 -0.285,-0.022 -0.11,-0.015 -0.213,-0.038 -0.316,-0.075 -0.104,-0.036 -0.191,-0.084 -0.261,-0.146 -0.028,-0.025 -0.056,-0.061 -0.081,-0.1 -0.025,-0.04 -0.044,-0.083 -0.061,-0.124 -0.014,-0.043 -0.022,-0.081 -0.022,-0.114l0 0.001 0.001 -0.001zm5.05 -4.653c0.107,0.011 0.203,0.023 0.291,0.037 0.087,0.019 0.168,0.036 0.241,0.064 0.064,0.016 0.117,0.038 0.155,0.069 0.038,0.03 0.068,0.071 0.087,0.125 0.02,0.059 0.032,0.134 0.038,0.235 0.004,0.075 0.009,0.176 0.012,0.305 0.003,0.128 0.004,0.277 0.007,0.441 0,0.169 0.001,0.345 0.001,0.53 0,0.187 0,0.375 0,0.567 0,0.558 0,1.024 -0.001,1.399 -0.004,0.373 -0.01,0.668 -0.018,0.883 -0.005,0.15 -0.033,0.264 -0.08,0.335 -0.051,0.069 -0.123,0.119 -0.22,0.14 -0.073,0.017 -0.172,0.037 -0.297,0.056 -0.124,0.02 -0.274,0.04 -0.449,0.057 -0.009,0.022 -0.013,0.057 -0.016,0.103 -0.001,0.047 0,0.095 0.005,0.141 0.003,0.05 0.011,0.088 0.021,0.116 0.163,0 0.342,-0.004 0.537,-0.008 0.194,-0.004 0.393,-0.011 0.594,-0.013 0.202,-0.007 0.396,-0.007 0.582,-0.007 0.521,0.001 1.007,0.007 1.462,0.017 0.452,0.014 0.881,0.02 1.284,0.022 0.146,0 0.25,-0.008 0.324,-0.026 0.073,-0.013 0.121,-0.033 0.151,-0.058 0.028,-0.025 0.047,-0.051 0.057,-0.081 0.036,-0.068 0.071,-0.15 0.11,-0.248 0.037,-0.097 0.075,-0.2 0.112,-0.309 0.037,-0.11 0.069,-0.218 0.102,-0.324 0.031,-0.106 0.055,-0.202 0.076,-0.29 0.023,-0.087 0.038,-0.154 0.046,-0.205 -0.016,-0.02 -0.049,-0.041 -0.1,-0.064 -0.051,-0.025 -0.102,-0.043 -0.158,-0.058 -0.055,-0.016 -0.094,-0.023 -0.121,-0.021 -0.067,0.162 -0.141,0.317 -0.226,0.467 -0.083,0.147 -0.167,0.276 -0.256,0.385 -0.066,0.084 -0.13,0.15 -0.195,0.192 -0.064,0.045 -0.139,0.073 -0.222,0.085 -0.084,0.015 -0.19,0.023 -0.318,0.021 -0.123,0 -0.255,0 -0.388,-0.002 -0.135,-0.004 -0.265,-0.007 -0.39,-0.014 -0.125,-0.005 -0.236,-0.012 -0.332,-0.022 -0.097,-0.006 -0.167,-0.017 -0.215,-0.029 -0.064,-0.021 -0.119,-0.061 -0.157,-0.119 -0.044,-0.058 -0.064,-0.132 -0.066,-0.22l0 -1.702c0,-0.014 0.006,-0.028 0.02,-0.051 0.012,-0.022 0.028,-0.037 0.048,-0.037 0.081,0 0.178,0 0.298,0 0.119,0 0.243,0.002 0.373,0.004 0.126,0.002 0.245,0.003 0.352,0.008 0.108,0.004 0.189,0.01 0.243,0.018 0.091,0.008 0.157,0.036 0.202,0.075 0.044,0.043 0.076,0.098 0.099,0.164 0.012,0.041 0.021,0.074 0.027,0.102 0.008,0.029 0.014,0.067 0.022,0.11 0.011,0.045 0.027,0.113 0.047,0.207 0.017,0.009 0.044,0.017 0.083,0.023 0.037,0.003 0.082,0.003 0.125,0.002 0.048,-0.001 0.088,-0.006 0.128,-0.012 0.039,-0.006 0.065,-0.014 0.081,-0.025 -0.003,-0.087 -0.006,-0.188 -0.009,-0.297 -0.002,-0.111 -0.005,-0.224 -0.007,-0.336 -0.002,-0.115 -0.003,-0.222 -0.003,-0.324 0,-0.104 0.004,-0.215 0.01,-0.327 0.008,-0.118 0.015,-0.225 0.023,-0.328 0.009,-0.103 0.019,-0.191 0.025,-0.265 -0.017,-0.011 -0.044,-0.021 -0.082,-0.029 -0.04,-0.009 -0.084,-0.015 -0.131,-0.016 -0.046,-0.003 -0.09,-0.003 -0.129,-0.002 -0.04,0.003 -0.068,0.009 -0.084,0.019 -0.014,0.068 -0.03,0.138 -0.043,0.205 -0.015,0.069 -0.03,0.128 -0.044,0.178 -0.028,0.094 -0.063,0.163 -0.108,0.207 -0.046,0.041 -0.111,0.067 -0.202,0.069 -0.083,0.007 -0.183,0.013 -0.299,0.014 -0.115,0.004 -0.237,0.005 -0.36,0.007 -0.125,0 -0.246,0 -0.358,0 -0.112,-0.002 -0.21,-0.002 -0.288,-0.002 -0.015,-0.001 -0.03,-0.011 -0.042,-0.027 -0.011,-0.016 -0.017,-0.035 -0.017,-0.05 0,-0.301 -0.002,-0.613 -0.004,-0.932 -0.002,-0.321 -0.002,-0.635 0.004,-0.944 0,-0.017 0.005,-0.04 0.015,-0.065 0.01,-0.027 0.023,-0.051 0.038,-0.074 0.015,-0.024 0.034,-0.04 0.055,-0.046 0.027,-0.004 0.088,-0.005 0.175,-0.007 0.088,-0.003 0.194,-0.003 0.314,-0.003 0.122,0 0.244,0 0.371,0.003 0.124,0.002 0.236,0.004 0.335,0.005 0.103,0.004 0.178,0.007 0.225,0.012 0.062,0.002 0.117,0.009 0.171,0.023 0.052,0.015 0.099,0.04 0.141,0.079 0.041,0.036 0.076,0.09 0.104,0.16 0.02,0.054 0.038,0.111 0.052,0.17 0.018,0.059 0.031,0.127 0.047,0.203 0.017,0.079 0.031,0.171 0.047,0.28 0.012,0.008 0.039,0.013 0.073,0.014 0.038,0.003 0.077,0.003 0.122,0 0.043,-0.001 0.083,-0.006 0.123,-0.014 0.036,-0.008 0.062,-0.016 0.078,-0.028 0.006,-0.17 0.017,-0.343 0.029,-0.522 0.012,-0.178 0.028,-0.345 0.044,-0.501 0.019,-0.153 0.039,-0.284 0.063,-0.387 -0.005,-0.009 -0.011,-0.019 -0.017,-0.027 -0.005,-0.012 -0.015,-0.017 -0.023,-0.021 -0.103,0.016 -0.224,0.028 -0.364,0.038 -0.141,0.007 -0.285,0.012 -0.433,0.014 -0.15,0.004 -0.287,0.008 -0.412,0.008l-1.982 0c-0.168,-0.005 -0.339,-0.009 -0.514,-0.015 -0.175,-0.006 -0.345,-0.012 -0.503,-0.016 -0.163,-0.005 -0.305,-0.01 -0.425,-0.01 -0.012,0.018 -0.023,0.05 -0.031,0.097 -0.008,0.049 -0.012,0.1 -0.009,0.149 0.001,0.05 0.008,0.084 0.02,0.103l0.002 -0.001 -0.001 -0.001z"/>
   <path class="fil0" d="M74.554 35.967c0.157,0.029 0.292,0.055 0.411,0.078 0.117,0.024 0.218,0.048 0.306,0.077 0.067,0.029 0.12,0.065 0.157,0.113 0.036,0.05 0.061,0.102 0.075,0.162 0.013,0.059 0.02,0.117 0.02,0.171 -0.007,0.138 -0.02,0.31 -0.036,0.518 -0.014,0.208 -0.031,0.437 -0.051,0.69 -0.021,0.252 -0.042,0.511 -0.066,0.772 -0.02,0.266 -0.043,0.524 -0.064,0.769 -0.024,0.252 -0.046,0.476 -0.068,0.679 -0.02,0.205 -0.038,0.371 -0.055,0.498 -0.017,0.137 -0.041,0.247 -0.073,0.33 -0.031,0.083 -0.075,0.148 -0.132,0.194 -0.056,0.047 -0.134,0.082 -0.229,0.105 -0.064,0.02 -0.14,0.034 -0.226,0.048 -0.087,0.013 -0.18,0.024 -0.278,0.039 -0.011,0.021 -0.02,0.055 -0.025,0.102 -0.004,0.049 -0.004,0.098 0,0.148 0.005,0.052 0.014,0.087 0.025,0.109 0.102,0 0.216,-0.004 0.342,-0.008 0.129,-0.004 0.263,-0.009 0.406,-0.013 0.143,-0.007 0.287,-0.007 0.432,-0.007 0.316,0 0.583,0.007 0.806,0.012 0.223,0.009 0.398,0.013 0.53,0.015 0.015,-0.012 0.024,-0.036 0.031,-0.071 0.007,-0.035 0.012,-0.072 0.016,-0.111 0.001,-0.039 0.001,-0.076 -0.004,-0.11 -0.005,-0.034 -0.012,-0.053 -0.024,-0.066 -0.138,-0.017 -0.256,-0.038 -0.353,-0.055 -0.1,-0.019 -0.19,-0.044 -0.276,-0.07 -0.095,-0.029 -0.168,-0.067 -0.216,-0.112 -0.05,-0.046 -0.082,-0.104 -0.1,-0.179 -0.015,-0.072 -0.023,-0.162 -0.023,-0.272 0,-0.123 0.005,-0.274 0.009,-0.448 0.004,-0.178 0.011,-0.371 0.018,-0.577 0.009,-0.208 0.018,-0.424 0.03,-0.645 0.011,-0.22 0.022,-0.437 0.036,-0.652 0.011,-0.215 0.023,-0.415 0.036,-0.602 0.014,-0.186 0.025,-0.355 0.036,-0.497 0.006,-0.009 0.015,-0.014 0.026,-0.021 0.011,-0.004 0.021,-0.007 0.032,-0.007 0.131,0.311 0.268,0.637 0.411,0.977 0.147,0.34 0.291,0.677 0.433,1.017 0.143,0.34 0.278,0.663 0.405,0.972 0.127,0.311 0.239,0.592 0.333,0.844 0.095,0.249 0.168,0.456 0.218,0.619 0.011,0.005 0.035,0.008 0.075,0.013 0.038,0 0.082,0.001 0.13,0 0.048,0 0.091,0 0.13,-0.007 0.041,-0.002 0.069,-0.01 0.082,-0.016 0.042,-0.12 0.1,-0.272 0.178,-0.46 0.078,-0.185 0.166,-0.394 0.268,-0.623 0.099,-0.233 0.209,-0.475 0.321,-0.729 0.114,-0.257 0.227,-0.511 0.342,-0.765 0.116,-0.255 0.227,-0.501 0.332,-0.737 0.104,-0.231 0.201,-0.446 0.285,-0.638 0.084,-0.192 0.154,-0.349 0.207,-0.477 0.007,0 0.015,0 0.025,-0.002 0.011,-0.002 0.02,-0.002 0.025,0.002 0,0.199 0.001,0.424 0.001,0.678 0.001,0.252 0.004,0.517 0.005,0.793 0,0.274 0.001,0.547 0.001,0.812 0.003,0.264 0.003,0.511 0,0.734 -0.001,0.223 -0.002,0.41 -0.007,0.559 0.001,0.134 -0.014,0.237 -0.047,0.311 -0.03,0.072 -0.087,0.124 -0.167,0.156 -0.067,0.019 -0.144,0.038 -0.23,0.052 -0.086,0.016 -0.186,0.036 -0.302,0.053 -0.012,0.021 -0.022,0.055 -0.026,0.104 -0.004,0.05 -0.004,0.102 0,0.152 0.004,0.049 0.015,0.084 0.026,0.103 0.198,-0.003 0.41,-0.006 0.637,-0.015 0.225,-0.007 0.473,-0.012 0.737,-0.013 0.28,0 0.518,0.001 0.715,0.007 0.195,0.005 0.363,0.009 0.501,0.013 0.135,0.004 0.253,0.008 0.351,0.008 0.016,-0.021 0.03,-0.056 0.037,-0.107 0.009,-0.047 0.012,-0.096 0.012,-0.144 -0.001,-0.05 -0.008,-0.085 -0.02,-0.107 -0.12,-0.018 -0.229,-0.038 -0.326,-0.055 -0.095,-0.02 -0.178,-0.036 -0.245,-0.051 -0.089,-0.023 -0.158,-0.059 -0.207,-0.11 -0.047,-0.048 -0.083,-0.107 -0.103,-0.179 -0.02,-0.073 -0.033,-0.152 -0.038,-0.245 -0.009,-0.097 -0.016,-0.231 -0.025,-0.398 -0.009,-0.167 -0.019,-0.36 -0.028,-0.573 -0.007,-0.218 -0.016,-0.443 -0.023,-0.682 -0.009,-0.237 -0.015,-0.475 -0.021,-0.714 -0.007,-0.238 -0.011,-0.467 -0.014,-0.682 -0.005,-0.214 -0.006,-0.407 -0.009,-0.574 0,-0.169 0,-0.301 0.004,-0.397 -0.001,-0.121 0.013,-0.22 0.051,-0.296 0.036,-0.075 0.107,-0.127 0.211,-0.162 0.067,-0.017 0.153,-0.038 0.255,-0.057 0.101,-0.018 0.222,-0.039 0.363,-0.057 0.013,-0.013 0.022,-0.038 0.028,-0.073 0.007,-0.036 0.009,-0.075 0.009,-0.119 0,-0.041 -0.002,-0.08 -0.009,-0.11 -0.008,-0.031 -0.015,-0.052 -0.028,-0.057 -0.125,0 -0.25,0.002 -0.377,0.005 -0.129,0.004 -0.271,0.006 -0.425,0.008 -0.155,0.006 -0.335,0.007 -0.542,0.012 -0.205,0.003 -0.447,0.004 -0.725,0.004 -0.005,0.087 -0.023,0.177 -0.054,0.273 -0.028,0.092 -0.065,0.191 -0.111,0.298 -0.055,0.132 -0.126,0.293 -0.21,0.479 -0.086,0.189 -0.178,0.393 -0.279,0.611 -0.103,0.218 -0.205,0.438 -0.311,0.661 -0.105,0.223 -0.206,0.436 -0.301,0.634 -0.096,0.199 -0.182,0.373 -0.257,0.523 -0.073,0.154 -0.13,0.263 -0.171,0.339 -0.004,0.007 -0.014,0.01 -0.025,0.012 -0.011,0.001 -0.023,-0.002 -0.032,-0.012 -0.038,-0.076 -0.094,-0.185 -0.162,-0.326 -0.069,-0.141 -0.147,-0.304 -0.236,-0.491 -0.088,-0.184 -0.18,-0.385 -0.279,-0.592 -0.099,-0.21 -0.197,-0.424 -0.296,-0.639 -0.099,-0.215 -0.195,-0.422 -0.282,-0.62 -0.091,-0.196 -0.172,-0.379 -0.245,-0.538 -0.048,-0.101 -0.088,-0.2 -0.12,-0.295 -0.033,-0.095 -0.054,-0.201 -0.064,-0.316 -0.301,0 -0.581,-0.003 -0.842,-0.008 -0.257,-0.003 -0.5,-0.008 -0.724,-0.012 -0.229,-0.005 -0.443,-0.009 -0.649,-0.009 -0.008,0.009 -0.014,0.029 -0.02,0.061 -0.007,0.033 -0.012,0.069 -0.015,0.109 -0.005,0.041 -0.007,0.08 -0.005,0.112 0,0.034 0.005,0.056 0.01,0.066l-0.001 -0.001 0 -0.002zm7.798 0c0.097,0.011 0.184,0.021 0.262,0.031 0.078,0.014 0.15,0.028 0.212,0.047 0.069,0.018 0.132,0.04 0.189,0.068 0.057,0.029 0.111,0.067 0.165,0.117 0.054,0.052 0.114,0.12 0.174,0.21 0.064,0.091 0.136,0.207 0.217,0.352 0.093,0.165 0.191,0.346 0.298,0.545 0.107,0.197 0.215,0.397 0.319,0.597 0.107,0.2 0.205,0.385 0.291,0.555 0.087,0.171 0.154,0.315 0.205,0.425 0.034,0.078 0.062,0.16 0.082,0.247 0.022,0.085 0.034,0.165 0.034,0.238 0,0.138 0.001,0.267 0.001,0.391 0.001,0.122 0.001,0.248 0,0.375 -0.001,0.127 -0.004,0.265 -0.011,0.415 0.001,0.096 -0.008,0.177 -0.02,0.252 -0.017,0.073 -0.046,0.135 -0.09,0.185 -0.043,0.049 -0.106,0.085 -0.191,0.107 -0.072,0.015 -0.164,0.031 -0.271,0.049 -0.108,0.02 -0.23,0.035 -0.365,0.049 -0.011,0.009 -0.019,0.03 -0.024,0.063 -0.007,0.034 -0.01,0.072 -0.01,0.112 -0.001,0.043 0.002,0.081 0.006,0.116 0.005,0.034 0.015,0.054 0.028,0.068 0.098,0 0.194,-0.002 0.293,-0.008 0.097,-0.003 0.2,-0.007 0.314,-0.013 0.111,-0.005 0.24,-0.009 0.382,-0.011 0.144,-0.006 0.309,-0.007 0.499,-0.007 0.149,0 0.297,0.001 0.45,0.007 0.151,0.002 0.297,0.007 0.44,0.011 0.14,0.006 0.269,0.01 0.385,0.013 0.115,0.006 0.21,0.008 0.283,0.008 0.01,-0.014 0.02,-0.034 0.026,-0.067 0.009,-0.035 0.015,-0.071 0.02,-0.113 0.002,-0.042 0.006,-0.079 0.005,-0.113 0,-0.032 -0.005,-0.055 -0.012,-0.066 -0.121,-0.02 -0.23,-0.033 -0.327,-0.048 -0.1,-0.014 -0.185,-0.03 -0.264,-0.05 -0.088,-0.019 -0.155,-0.054 -0.201,-0.106 -0.044,-0.05 -0.073,-0.115 -0.089,-0.198 -0.018,-0.08 -0.026,-0.175 -0.028,-0.285 -0.003,-0.163 -0.006,-0.317 -0.007,-0.454 -0.001,-0.14 -0.002,-0.275 -0.002,-0.408 0,-0.131 0,-0.268 0,-0.409 0,-0.079 0.007,-0.154 0.022,-0.22 0.015,-0.066 0.039,-0.136 0.075,-0.207 0.044,-0.088 0.101,-0.2 0.175,-0.331 0.071,-0.13 0.15,-0.277 0.238,-0.432 0.087,-0.162 0.178,-0.321 0.273,-0.486 0.094,-0.166 0.187,-0.323 0.277,-0.478 0.091,-0.153 0.176,-0.291 0.254,-0.414 0.093,-0.144 0.174,-0.255 0.245,-0.338 0.069,-0.082 0.141,-0.144 0.21,-0.186 0.071,-0.043 0.151,-0.08 0.243,-0.108 0.06,-0.018 0.127,-0.034 0.206,-0.046 0.079,-0.015 0.162,-0.031 0.249,-0.05 0.009,-0.01 0.016,-0.032 0.021,-0.066 0.004,-0.032 0.007,-0.07 0.007,-0.112 0,-0.041 -0.005,-0.077 -0.011,-0.109 -0.005,-0.032 -0.016,-0.052 -0.027,-0.061 -0.106,0 -0.208,0.004 -0.311,0.009 -0.103,0.004 -0.22,0.008 -0.348,0.011 -0.128,0.005 -0.278,0.009 -0.454,0.009 -0.239,-0.002 -0.458,-0.005 -0.655,-0.015 -0.199,-0.009 -0.368,-0.012 -0.514,-0.014 -0.018,0.012 -0.029,0.04 -0.038,0.088 -0.007,0.044 -0.012,0.095 -0.012,0.147 0,0.051 0.005,0.088 0.011,0.112 0.104,0.021 0.196,0.037 0.277,0.051 0.079,0.011 0.154,0.027 0.226,0.046 0.078,0.017 0.137,0.04 0.17,0.069 0.035,0.028 0.054,0.064 0.055,0.107 0.003,0.042 -0.005,0.09 -0.023,0.144 -0.023,0.073 -0.063,0.171 -0.12,0.294 -0.056,0.118 -0.124,0.258 -0.199,0.408 -0.078,0.151 -0.158,0.306 -0.242,0.466 -0.086,0.157 -0.169,0.312 -0.251,0.455 -0.082,0.146 -0.156,0.274 -0.223,0.384 -0.009,0.007 -0.02,0.009 -0.033,0.012 -0.013,0.003 -0.024,-0.004 -0.033,-0.012 -0.028,-0.046 -0.07,-0.119 -0.121,-0.217 -0.053,-0.1 -0.116,-0.214 -0.183,-0.345 -0.069,-0.13 -0.139,-0.269 -0.214,-0.412 -0.074,-0.146 -0.146,-0.288 -0.215,-0.428 -0.07,-0.141 -0.133,-0.269 -0.189,-0.385 -0.057,-0.119 -0.1,-0.214 -0.134,-0.287 -0.033,-0.063 -0.045,-0.122 -0.042,-0.173 0.003,-0.052 0.041,-0.088 0.11,-0.108l0.309 -0.069c0.014,-0.009 0.022,-0.031 0.026,-0.066 0.004,-0.031 0.007,-0.067 0.007,-0.106 -0.003,-0.043 -0.007,-0.076 -0.014,-0.111 -0.006,-0.033 -0.015,-0.052 -0.028,-0.065 -0.041,0.001 -0.114,0.005 -0.21,0.009 -0.097,0.003 -0.212,0.004 -0.342,0.01 -0.131,0.001 -0.27,0.006 -0.415,0.007 -0.145,0.002 -0.286,0.003 -0.426,0.003 -0.167,0 -0.33,-0.003 -0.49,-0.009 -0.16,-0.003 -0.311,-0.008 -0.451,-0.011 -0.138,-0.004 -0.262,-0.009 -0.365,-0.009 -0.013,0.013 -0.024,0.045 -0.03,0.092 -0.005,0.047 -0.007,0.096 -0.006,0.146 0.001,0.049 0.006,0.084 0.016,0.11l-0.002 0 0.001 0z"/>
   <path class="fil1" d="M42.168 40.88c-0.014,0.02 -0.021,0.054 -0.028,0.106 -0.005,0.047 -0.005,0.097 0,0.144 0.007,0.05 0.014,0.085 0.028,0.106 0.146,-0.001 0.314,-0.006 0.504,-0.012 0.191,-0.01 0.394,-0.015 0.608,-0.015 0.3,0 0.555,0.007 0.767,0.015 0.213,0.007 0.379,0.011 0.499,0.012 0.011,-0.022 0.018,-0.057 0.025,-0.107 0.007,-0.05 0.01,-0.1 0.01,-0.15 0,-0.047 -0.004,-0.082 -0.015,-0.1 -0.087,-0.01 -0.169,-0.024 -0.25,-0.04 -0.079,-0.016 -0.157,-0.033 -0.234,-0.047 -0.083,-0.02 -0.144,-0.044 -0.183,-0.078 -0.043,-0.03 -0.069,-0.067 -0.082,-0.109 -0.012,-0.043 -0.017,-0.091 -0.015,-0.144 0,-0.044 0.013,-0.106 0.036,-0.194 0.023,-0.085 0.054,-0.186 0.093,-0.299 0.037,-0.113 0.079,-0.232 0.124,-0.358 0.047,-0.125 0.091,-0.251 0.134,-0.374 0.009,-0.022 0.025,-0.044 0.045,-0.064 0.021,-0.022 0.04,-0.032 0.062,-0.033l1.596 0c0.016,0.001 0.033,0.008 0.052,0.022 0.019,0.014 0.033,0.029 0.044,0.045 0.035,0.087 0.075,0.188 0.119,0.306 0.044,0.118 0.087,0.242 0.131,0.369 0.044,0.129 0.085,0.253 0.12,0.369 0.038,0.117 0.066,0.217 0.085,0.3 0.011,0.028 0.011,0.059 -0.002,0.098 -0.011,0.04 -0.043,0.074 -0.095,0.106 -0.05,0.03 -0.119,0.052 -0.207,0.069 -0.09,0.02 -0.187,0.037 -0.296,0.057 -0.009,0.018 -0.014,0.053 -0.016,0.099 -0.004,0.051 -0.002,0.101 0.003,0.15 0.007,0.051 0.013,0.086 0.023,0.108 0.103,0 0.222,-0.004 0.356,-0.008 0.137,-0.005 0.293,-0.006 0.471,-0.013 0.179,-0.004 0.384,-0.007 0.614,-0.007 0.343,0 0.626,0.007 0.851,0.015 0.225,0.007 0.4,0.012 0.523,0.013 0.009,-0.01 0.02,-0.033 0.025,-0.066 0.01,-0.031 0.015,-0.07 0.018,-0.111 0.004,-0.04 0.004,-0.076 0.004,-0.111 -0.004,-0.032 -0.007,-0.059 -0.018,-0.07 -0.18,-0.025 -0.327,-0.053 -0.436,-0.084 -0.112,-0.032 -0.203,-0.078 -0.271,-0.142 -0.07,-0.061 -0.135,-0.148 -0.192,-0.262 -0.058,-0.116 -0.125,-0.269 -0.204,-0.46 -0.059,-0.146 -0.129,-0.324 -0.211,-0.539 -0.079,-0.215 -0.17,-0.451 -0.263,-0.708 -0.095,-0.258 -0.191,-0.521 -0.288,-0.79 -0.098,-0.269 -0.193,-0.531 -0.285,-0.786 -0.093,-0.255 -0.176,-0.487 -0.252,-0.698 -0.076,-0.211 -0.14,-0.385 -0.19,-0.521 -0.029,-0.092 -0.06,-0.189 -0.089,-0.293 -0.031,-0.104 -0.06,-0.201 -0.085,-0.29 -0.053,0.006 -0.116,0.01 -0.19,0.013 -0.076,0.007 -0.163,0.008 -0.266,0.008 -0.087,0 -0.17,-0.002 -0.247,-0.008 -0.079,-0.003 -0.147,-0.007 -0.207,-0.013 -0.009,0.06 -0.026,0.129 -0.049,0.211 -0.023,0.082 -0.046,0.163 -0.074,0.248 -0.028,0.088 -0.054,0.164 -0.081,0.237 -0.038,0.113 -0.092,0.261 -0.159,0.445 -0.066,0.187 -0.142,0.394 -0.229,0.628 -0.086,0.232 -0.18,0.478 -0.278,0.74 -0.096,0.258 -0.198,0.522 -0.299,0.784 -0.103,0.266 -0.205,0.52 -0.302,0.767 -0.099,0.248 -0.193,0.475 -0.28,0.681 -0.069,0.161 -0.132,0.289 -0.194,0.389 -0.06,0.098 -0.127,0.176 -0.201,0.232 -0.076,0.053 -0.169,0.096 -0.281,0.127 -0.113,0.031 -0.255,0.059 -0.427,0.085l0 -0.002 0.001 0.002zm2.901 -4.238c0.004,-0.004 0.012,-0.008 0.025,-0.008 0.01,-0.001 0.017,-0.001 0.023,-0.001 0.038,0.098 0.08,0.214 0.127,0.348 0.048,0.134 0.096,0.272 0.147,0.419 0.053,0.146 0.102,0.288 0.149,0.431 0.049,0.139 0.092,0.269 0.131,0.384 0.04,0.117 0.071,0.212 0.096,0.285 0,0.009 -0.005,0.023 -0.014,0.038 -0.007,0.011 -0.017,0.018 -0.026,0.022 -0.047,0.004 -0.125,0.007 -0.238,0.007 -0.114,0.002 -0.243,0.002 -0.391,0.002 -0.147,0 -0.273,0 -0.378,-0.002 -0.106,0 -0.185,-0.003 -0.241,-0.007 -0.014,-0.006 -0.024,-0.018 -0.031,-0.034 -0.004,-0.016 -0.008,-0.037 -0.008,-0.053l0.63 -1.83 -0.002 -0.001 0.001 0zm8.921 0.272c0.005,0.014 0.026,0.022 0.059,0.023 0.036,0 0.075,-0.001 0.122,-0.009 0.045,-0.008 0.085,-0.02 0.123,-0.03 0.036,-0.014 0.061,-0.029 0.072,-0.043 -0.006,-0.164 -0.008,-0.339 -0.005,-0.526 0.004,-0.186 0.009,-0.371 0.018,-0.552 0.007,-0.181 0.016,-0.344 0.027,-0.488 -0.06,0 -0.132,-0.005 -0.215,-0.009 -0.085,-0.006 -0.173,-0.013 -0.269,-0.025 -0.095,-0.007 -0.189,-0.017 -0.281,-0.025 -0.189,-0.016 -0.379,-0.032 -0.572,-0.052 -0.192,-0.014 -0.385,-0.023 -0.579,-0.027 -0.402,0.004 -0.763,0.04 -1.091,0.109 -0.328,0.074 -0.621,0.175 -0.882,0.307 -0.266,0.14 -0.498,0.302 -0.694,0.492 -0.2,0.189 -0.365,0.398 -0.492,0.631 -0.13,0.23 -0.23,0.472 -0.294,0.729 -0.065,0.259 -0.097,0.519 -0.097,0.792 0.004,0.689 0.141,1.27 0.412,1.741 0.271,0.47 0.664,0.827 1.176,1.066 0.512,0.241 1.132,0.361 1.856,0.364 0.225,-0.002 0.43,-0.015 0.613,-0.038 0.182,-0.026 0.345,-0.058 0.489,-0.093 0.143,-0.038 0.266,-0.073 0.369,-0.11 0.065,-0.044 0.139,-0.118 0.216,-0.222 0.079,-0.105 0.154,-0.224 0.233,-0.361 0.076,-0.135 0.142,-0.269 0.205,-0.404 0.06,-0.134 0.106,-0.253 0.139,-0.357 -0.018,-0.032 -0.046,-0.061 -0.085,-0.09 -0.037,-0.032 -0.078,-0.055 -0.12,-0.077 -0.044,-0.022 -0.076,-0.035 -0.104,-0.038 -0.078,0.131 -0.161,0.258 -0.248,0.38 -0.086,0.125 -0.173,0.236 -0.261,0.338 -0.085,0.099 -0.168,0.183 -0.246,0.252 -0.138,0.114 -0.288,0.192 -0.452,0.237 -0.164,0.04 -0.33,0.061 -0.496,0.061 -0.323,-0.001 -0.611,-0.054 -0.86,-0.157 -0.249,-0.103 -0.464,-0.248 -0.642,-0.429 -0.18,-0.179 -0.324,-0.387 -0.438,-0.621 -0.115,-0.232 -0.199,-0.478 -0.252,-0.741 -0.054,-0.262 -0.082,-0.526 -0.082,-0.789 0.003,-0.564 0.08,-1.032 0.232,-1.414 0.151,-0.38 0.366,-0.668 0.644,-0.861 0.28,-0.194 0.61,-0.291 0.993,-0.291 0.208,0 0.414,0.02 0.612,0.057 0.201,0.034 0.382,0.094 0.548,0.177 0.118,0.057 0.213,0.131 0.288,0.218 0.07,0.09 0.133,0.204 0.18,0.348 0.049,0.143 0.093,0.328 0.132,0.557l-0.001 0 0 0zm0.841 3.966c-0.014,0.02 -0.021,0.054 -0.028,0.106 -0.005,0.047 -0.005,0.097 0,0.144 0.007,0.05 0.014,0.085 0.028,0.106 0.146,-0.001 0.315,-0.006 0.506,-0.012 0.19,-0.01 0.392,-0.015 0.606,-0.015 0.298,0 0.555,0.007 0.766,0.015 0.213,0.007 0.379,0.011 0.5,0.012 0.01,-0.022 0.017,-0.057 0.025,-0.107 0.006,-0.05 0.009,-0.1 0.009,-0.15 0,-0.047 -0.004,-0.082 -0.015,-0.1 -0.087,-0.01 -0.168,-0.024 -0.249,-0.04 -0.079,-0.016 -0.157,-0.033 -0.234,-0.047 -0.082,-0.02 -0.144,-0.044 -0.184,-0.078 -0.042,-0.03 -0.068,-0.067 -0.08,-0.109 -0.012,-0.043 -0.019,-0.091 -0.016,-0.144 0,-0.044 0.012,-0.106 0.036,-0.194 0.023,-0.085 0.053,-0.186 0.091,-0.299 0.039,-0.113 0.081,-0.232 0.125,-0.358 0.045,-0.125 0.091,-0.251 0.134,-0.374 0.01,-0.022 0.026,-0.044 0.046,-0.064 0.02,-0.022 0.04,-0.032 0.061,-0.033l1.596 0c0.016,0.001 0.033,0.008 0.051,0.022 0.02,0.014 0.034,0.029 0.045,0.045 0.035,0.087 0.075,0.188 0.118,0.306 0.043,0.118 0.087,0.242 0.13,0.369 0.046,0.129 0.087,0.253 0.123,0.369 0.036,0.117 0.064,0.217 0.084,0.3 0.011,0.028 0.011,0.059 -0.002,0.098 -0.011,0.04 -0.044,0.074 -0.095,0.106 -0.051,0.03 -0.119,0.052 -0.208,0.069 -0.088,0.02 -0.187,0.037 -0.295,0.057 -0.01,0.018 -0.015,0.053 -0.015,0.099 -0.004,0.051 -0.003,0.101 0.001,0.15 0.007,0.051 0.014,0.086 0.023,0.108 0.103,0 0.221,-0.004 0.356,-0.008 0.136,-0.005 0.292,-0.006 0.471,-0.013 0.179,-0.004 0.384,-0.007 0.615,-0.007 0.342,0 0.625,0.007 0.85,0.015 0.226,0.007 0.399,0.012 0.523,0.013 0.011,-0.01 0.02,-0.033 0.026,-0.066 0.008,-0.031 0.015,-0.07 0.018,-0.111 0.003,-0.04 0.004,-0.076 0.003,-0.111 -0.003,-0.032 -0.008,-0.059 -0.017,-0.07 -0.182,-0.025 -0.328,-0.053 -0.437,-0.084 -0.111,-0.032 -0.202,-0.078 -0.272,-0.142 -0.069,-0.061 -0.134,-0.148 -0.191,-0.262 -0.058,-0.116 -0.125,-0.269 -0.204,-0.46 -0.06,-0.146 -0.128,-0.324 -0.21,-0.539 -0.081,-0.215 -0.17,-0.451 -0.263,-0.708 -0.095,-0.258 -0.191,-0.521 -0.288,-0.79 -0.098,-0.269 -0.194,-0.531 -0.286,-0.786 -0.091,-0.255 -0.176,-0.487 -0.252,-0.698 -0.076,-0.211 -0.14,-0.385 -0.189,-0.521 -0.031,-0.092 -0.061,-0.189 -0.09,-0.293 -0.031,-0.104 -0.06,-0.201 -0.084,-0.29 -0.053,0.006 -0.117,0.01 -0.19,0.013 -0.076,0.007 -0.163,0.008 -0.265,0.008 -0.087,0 -0.171,-0.002 -0.249,-0.008 -0.077,-0.003 -0.147,-0.007 -0.205,-0.013 -0.01,0.06 -0.028,0.129 -0.049,0.211 -0.023,0.082 -0.047,0.163 -0.073,0.248 -0.029,0.088 -0.056,0.164 -0.082,0.237 -0.039,0.113 -0.091,0.261 -0.16,0.445 -0.066,0.187 -0.142,0.394 -0.228,0.628 -0.087,0.232 -0.179,0.478 -0.278,0.74 -0.098,0.258 -0.198,0.522 -0.301,0.784 -0.102,0.266 -0.202,0.52 -0.3,0.767 -0.1,0.248 -0.194,0.475 -0.281,0.681 -0.068,0.161 -0.132,0.289 -0.194,0.389 -0.058,0.098 -0.127,0.176 -0.2,0.232 -0.077,0.053 -0.17,0.096 -0.282,0.127 -0.112,0.031 -0.255,0.059 -0.427,0.085l0.002 -0.002 0 0.002zm2.901 -4.238c0.006,-0.004 0.012,-0.008 0.025,-0.008 0.009,-0.001 0.017,-0.001 0.023,-0.001 0.038,0.098 0.081,0.214 0.127,0.348 0.047,0.134 0.096,0.272 0.148,0.419 0.052,0.146 0.1,0.288 0.147,0.431 0.049,0.139 0.093,0.269 0.131,0.384 0.04,0.117 0.071,0.212 0.096,0.285 0,0.009 -0.005,0.023 -0.013,0.038 -0.007,0.011 -0.017,0.018 -0.027,0.022 -0.046,0.004 -0.124,0.007 -0.238,0.007 -0.112,0.002 -0.242,0.002 -0.39,0.002 -0.145,0 -0.273,0 -0.379,-0.002 -0.107,0 -0.186,-0.003 -0.241,-0.007 -0.014,-0.006 -0.023,-0.018 -0.029,-0.034 -0.005,-0.016 -0.009,-0.037 -0.009,-0.053l0.628 -1.83 0.001 -0.001 0 0zm3.754 -1.005c0.063,0.008 0.128,0.018 0.193,0.032 0.069,0.01 0.131,0.023 0.191,0.036 0.058,0.015 0.107,0.024 0.147,0.038 0.079,0.022 0.137,0.05 0.178,0.083 0.045,0.033 0.076,0.079 0.095,0.134 0.02,0.057 0.032,0.131 0.037,0.219 0.011,0.215 0.02,0.491 0.02,0.826 0,0.335 0,0.729 -0.001,1.18 0,0.319 0,0.621 0,0.901 -0.001,0.28 -0.004,0.529 -0.008,0.744 -0.001,0.214 -0.005,0.379 -0.011,0.497 -0.013,0.14 -0.047,0.244 -0.099,0.317 -0.053,0.069 -0.127,0.115 -0.23,0.14 -0.06,0.016 -0.119,0.031 -0.178,0.04 -0.057,0.015 -0.119,0.023 -0.188,0.032 -0.066,0.01 -0.146,0.019 -0.233,0.024 -0.012,0.006 -0.023,0.026 -0.028,0.054 -0.004,0.032 -0.007,0.068 -0.007,0.107 0,0.04 0.004,0.08 0.01,0.114 0.005,0.038 0.013,0.064 0.024,0.082l0.405 0c0.296,0.003 0.58,0.011 0.856,0.025 0.276,0.014 0.535,0.023 0.778,0.035 0.242,0.012 0.458,0.016 0.649,0.018 0.345,0.001 0.671,-0.024 0.978,-0.071 0.306,-0.05 0.598,-0.131 0.868,-0.245 0.273,-0.113 0.527,-0.266 0.765,-0.457 0.198,-0.155 0.378,-0.348 0.539,-0.578 0.159,-0.231 0.29,-0.503 0.386,-0.809 0.098,-0.306 0.15,-0.652 0.151,-1.037 0,-0.298 -0.04,-0.584 -0.113,-0.854 -0.076,-0.27 -0.186,-0.52 -0.332,-0.75 -0.144,-0.228 -0.323,-0.43 -0.533,-0.608 -0.261,-0.21 -0.562,-0.369 -0.902,-0.468 -0.343,-0.102 -0.729,-0.152 -1.158,-0.149 -0.203,0 -0.382,0.001 -0.536,0.001 -0.153,0.002 -0.295,0.006 -0.428,0.009 -0.132,0.004 -0.267,0.006 -0.405,0.011 -0.139,0.002 -0.295,0.005 -0.47,0.008 -0.057,0 -0.135,-0.002 -0.232,-0.005 -0.098,-0.001 -0.205,-0.003 -0.32,-0.007 -0.115,-0.001 -0.229,-0.006 -0.341,-0.008 -0.114,-0.002 -0.211,-0.005 -0.298,-0.008 -0.087,0 -0.152,-0.001 -0.193,-0.001 -0.011,0.016 -0.023,0.052 -0.033,0.099 -0.008,0.05 -0.013,0.098 -0.013,0.148 0,0.047 0.005,0.081 0.019,0.101l0.001 0 0 0zm2.128 4.651c-0.007,-0.065 -0.012,-0.165 -0.017,-0.298 -0.004,-0.137 -0.009,-0.295 -0.009,-0.482 -0.003,-0.185 -0.004,-0.384 -0.004,-0.6 0,-0.216 0,-0.437 0,-0.665 0,-0.171 0,-0.354 0,-0.542 0,-0.191 0,-0.379 0.001,-0.566 0,-0.189 0.003,-0.366 0.004,-0.531 0,-0.165 0.004,-0.313 0.006,-0.438 0.003,-0.127 0.007,-0.222 0.009,-0.289 0,-0.024 0.009,-0.051 0.024,-0.078 0.015,-0.028 0.032,-0.044 0.054,-0.057 0.031,-0.015 0.082,-0.028 0.151,-0.036 0.069,-0.008 0.14,-0.012 0.216,-0.012 0.255,-0.004 0.499,0.026 0.735,0.081 0.234,0.058 0.449,0.147 0.639,0.277 0.225,0.158 0.415,0.351 0.564,0.582 0.15,0.229 0.264,0.485 0.339,0.766 0.076,0.278 0.113,0.569 0.113,0.871 0,0.334 -0.027,0.625 -0.079,0.879 -0.051,0.257 -0.125,0.48 -0.22,0.671 -0.093,0.193 -0.203,0.363 -0.33,0.506 -0.118,0.134 -0.24,0.244 -0.367,0.321 -0.123,0.079 -0.251,0.138 -0.387,0.171 -0.132,0.035 -0.271,0.052 -0.417,0.05 -0.082,0 -0.177,-0.007 -0.285,-0.023 -0.11,-0.014 -0.213,-0.038 -0.316,-0.075 -0.104,-0.036 -0.191,-0.082 -0.261,-0.142 -0.028,-0.029 -0.056,-0.063 -0.081,-0.103 -0.025,-0.04 -0.044,-0.082 -0.061,-0.124 -0.014,-0.042 -0.022,-0.082 -0.022,-0.115l0 0 0.001 0.001zm5.05 -4.651c0.107,0.008 0.203,0.023 0.291,0.038 0.087,0.016 0.168,0.033 0.241,0.06 0.064,0.016 0.117,0.04 0.155,0.069 0.038,0.029 0.068,0.071 0.087,0.126 0.02,0.059 0.032,0.136 0.038,0.237 0.004,0.072 0.009,0.174 0.012,0.303 0.003,0.128 0.004,0.275 0.007,0.441 0,0.168 0.001,0.344 0.001,0.53 0,0.186 0,0.375 0,0.565 0,0.559 0,1.025 -0.001,1.402 -0.004,0.371 -0.01,0.666 -0.018,0.881 -0.005,0.154 -0.033,0.265 -0.08,0.335 -0.051,0.073 -0.123,0.118 -0.22,0.141 -0.073,0.019 -0.172,0.038 -0.297,0.058 -0.124,0.017 -0.274,0.038 -0.449,0.057 -0.009,0.02 -0.013,0.054 -0.016,0.1 -0.001,0.049 0,0.097 0.005,0.142 0.003,0.05 0.011,0.087 0.021,0.115 0.163,0 0.342,-0.004 0.537,-0.008 0.194,-0.005 0.393,-0.01 0.594,-0.013 0.202,-0.004 0.396,-0.007 0.582,-0.007 0.521,0 1.007,0.007 1.462,0.02 0.452,0.01 0.881,0.017 1.284,0.017 0.146,0 0.25,-0.007 0.324,-0.021 0.073,-0.015 0.121,-0.036 0.151,-0.061 0.028,-0.022 0.047,-0.051 0.057,-0.08 0.036,-0.069 0.071,-0.15 0.11,-0.245 0.037,-0.097 0.075,-0.201 0.112,-0.311 0.037,-0.111 0.069,-0.218 0.102,-0.326 0.031,-0.104 0.055,-0.201 0.076,-0.288 0.023,-0.086 0.038,-0.155 0.046,-0.203 -0.016,-0.023 -0.049,-0.043 -0.1,-0.067 -0.051,-0.023 -0.102,-0.044 -0.158,-0.058 -0.055,-0.016 -0.094,-0.021 -0.121,-0.021 -0.067,0.161 -0.141,0.318 -0.226,0.467 -0.083,0.146 -0.167,0.276 -0.256,0.385 -0.066,0.083 -0.13,0.148 -0.195,0.192 -0.064,0.044 -0.139,0.073 -0.222,0.088 -0.084,0.015 -0.19,0.021 -0.318,0.019 -0.123,0 -0.255,-0.002 -0.388,-0.002 -0.135,-0.004 -0.265,-0.008 -0.39,-0.014 -0.125,-0.004 -0.236,-0.011 -0.332,-0.023 -0.097,-0.007 -0.167,-0.016 -0.215,-0.029 -0.064,-0.018 -0.119,-0.061 -0.157,-0.118 -0.044,-0.06 -0.064,-0.131 -0.066,-0.22l0 -1.704c0,-0.014 0.006,-0.028 0.02,-0.052 0.012,-0.02 0.028,-0.034 0.048,-0.036 0.081,0 0.178,0 0.298,0 0.119,0 0.243,0.002 0.373,0.006 0.126,0.001 0.245,0.004 0.352,0.009 0.108,0.004 0.189,0.007 0.243,0.015 0.091,0.012 0.157,0.036 0.202,0.079 0.044,0.04 0.076,0.096 0.099,0.163 0.012,0.039 0.021,0.072 0.027,0.103 0.008,0.025 0.014,0.061 0.022,0.107 0.011,0.045 0.027,0.113 0.047,0.207 0.017,0.008 0.044,0.02 0.083,0.023 0.037,0.005 0.082,0.005 0.125,0.004 0.048,-0.004 0.088,-0.007 0.128,-0.013 0.039,-0.007 0.065,-0.014 0.081,-0.025 -0.003,-0.088 -0.006,-0.189 -0.009,-0.298 -0.002,-0.109 -0.005,-0.222 -0.007,-0.335 -0.002,-0.114 -0.003,-0.224 -0.003,-0.323 0,-0.107 0.004,-0.215 0.01,-0.332 0.008,-0.113 0.015,-0.223 0.023,-0.326 0.009,-0.103 0.019,-0.193 0.025,-0.262 -0.017,-0.012 -0.044,-0.023 -0.082,-0.032 -0.04,-0.008 -0.084,-0.012 -0.131,-0.016 -0.046,-0.003 -0.09,-0.003 -0.129,-0.002 -0.04,0.006 -0.068,0.01 -0.084,0.02 -0.014,0.069 -0.03,0.138 -0.043,0.206 -0.015,0.07 -0.03,0.129 -0.044,0.176 -0.028,0.095 -0.063,0.163 -0.108,0.208 -0.046,0.042 -0.111,0.066 -0.202,0.068 -0.083,0.008 -0.183,0.012 -0.299,0.017 -0.115,0.001 -0.237,0.002 -0.36,0.004 -0.125,0 -0.246,0 -0.358,0 -0.112,-0.001 -0.21,-0.001 -0.288,-0.001 -0.015,-0.002 -0.03,-0.012 -0.042,-0.028 -0.011,-0.016 -0.017,-0.033 -0.017,-0.047 0,-0.302 -0.002,-0.614 -0.004,-0.933 -0.002,-0.321 -0.002,-0.637 0.004,-0.942 0,-0.02 0.005,-0.043 0.015,-0.069 0.01,-0.026 0.023,-0.05 0.038,-0.074 0.015,-0.022 0.034,-0.038 0.055,-0.044 0.027,-0.005 0.088,-0.008 0.175,-0.008 0.088,-0.004 0.194,-0.004 0.314,-0.004 0.122,0 0.244,0.001 0.371,0.004 0.124,0.002 0.236,0.004 0.335,0.005 0.103,0.006 0.178,0.007 0.225,0.012 0.062,0.001 0.117,0.009 0.171,0.023 0.052,0.015 0.099,0.042 0.141,0.079 0.041,0.038 0.076,0.091 0.104,0.162 0.02,0.053 0.038,0.107 0.052,0.168 0.018,0.057 0.031,0.125 0.047,0.204 0.017,0.076 0.031,0.17 0.047,0.281 0.012,0.006 0.039,0.01 0.073,0.014 0.038,0.002 0.077,0.002 0.122,0 0.043,-0.004 0.083,-0.008 0.123,-0.014 0.036,-0.01 0.062,-0.02 0.078,-0.03 0.006,-0.171 0.017,-0.345 0.029,-0.524 0.012,-0.178 0.028,-0.344 0.044,-0.499 0.019,-0.154 0.039,-0.282 0.063,-0.387 -0.005,-0.011 -0.011,-0.02 -0.017,-0.026 -0.005,-0.01 -0.015,-0.016 -0.023,-0.023 -0.103,0.017 -0.224,0.028 -0.364,0.037 -0.141,0.008 -0.285,0.015 -0.433,0.016 -0.15,0.006 -0.287,0.007 -0.412,0.007l-1.982 0c-0.168,-0.003 -0.339,-0.008 -0.514,-0.016 -0.175,-0.006 -0.345,-0.011 -0.503,-0.015 -0.163,-0.005 -0.305,-0.007 -0.425,-0.007 -0.012,0.016 -0.023,0.046 -0.031,0.095 -0.008,0.049 -0.012,0.098 -0.009,0.149 0.001,0.049 0.008,0.083 0.02,0.103l0.002 0.002 -0.001 -0.002z"/>
   <path class="fil1" d="M74.554 35.637c0.157,0.026 0.292,0.054 0.411,0.076 0.117,0.023 0.218,0.05 0.306,0.079 0.067,0.026 0.12,0.062 0.157,0.113 0.036,0.048 0.061,0.103 0.075,0.161 0.013,0.056 0.02,0.114 0.02,0.172 -0.007,0.136 -0.02,0.307 -0.036,0.518 -0.014,0.208 -0.031,0.438 -0.051,0.686 -0.021,0.252 -0.042,0.511 -0.066,0.777 -0.02,0.262 -0.043,0.521 -0.064,0.767 -0.024,0.249 -0.046,0.475 -0.068,0.681 -0.02,0.202 -0.038,0.368 -0.055,0.496 -0.017,0.139 -0.041,0.247 -0.073,0.331 -0.031,0.084 -0.075,0.146 -0.132,0.195 -0.056,0.044 -0.134,0.08 -0.229,0.104 -0.064,0.018 -0.14,0.034 -0.226,0.046 -0.087,0.013 -0.18,0.028 -0.278,0.041 -0.011,0.018 -0.02,0.053 -0.025,0.1 -0.004,0.05 -0.004,0.1 0,0.149 0.005,0.051 0.014,0.086 0.025,0.108 0.102,0 0.216,-0.004 0.342,-0.008 0.129,-0.005 0.263,-0.006 0.406,-0.013 0.143,-0.004 0.287,-0.007 0.432,-0.007 0.316,0 0.583,0.007 0.806,0.015 0.223,0.007 0.398,0.012 0.53,0.013 0.015,-0.013 0.024,-0.036 0.031,-0.071 0.007,-0.033 0.012,-0.069 0.016,-0.112 0.001,-0.039 0.001,-0.076 -0.004,-0.107 -0.005,-0.035 -0.012,-0.057 -0.024,-0.066 -0.138,-0.02 -0.256,-0.037 -0.353,-0.057 -0.1,-0.018 -0.19,-0.043 -0.276,-0.069 -0.095,-0.031 -0.168,-0.067 -0.216,-0.11 -0.05,-0.051 -0.082,-0.108 -0.1,-0.182 -0.015,-0.071 -0.023,-0.162 -0.023,-0.272 0,-0.124 0.005,-0.274 0.009,-0.449 0.004,-0.177 0.011,-0.37 0.018,-0.578 0.009,-0.209 0.018,-0.421 0.03,-0.643 0.011,-0.221 0.022,-0.439 0.036,-0.653 0.011,-0.214 0.023,-0.414 0.036,-0.604 0.014,-0.186 0.025,-0.353 0.036,-0.495 0.006,-0.01 0.015,-0.016 0.026,-0.019 0.011,-0.007 0.021,-0.009 0.032,-0.009 0.131,0.311 0.268,0.634 0.411,0.976 0.147,0.34 0.291,0.678 0.433,1.016 0.143,0.339 0.278,0.665 0.405,0.974 0.127,0.31 0.239,0.589 0.333,0.843 0.095,0.25 0.168,0.459 0.218,0.622 0.011,0.004 0.035,0.006 0.075,0.009 0.038,0.001 0.082,0.004 0.13,0.001 0.048,0 0.091,-0.001 0.13,-0.004 0.041,-0.005 0.069,-0.012 0.082,-0.019 0.042,-0.118 0.1,-0.271 0.178,-0.459 0.078,-0.184 0.166,-0.395 0.268,-0.625 0.099,-0.231 0.209,-0.475 0.321,-0.728 0.114,-0.255 0.227,-0.511 0.342,-0.763 0.116,-0.258 0.227,-0.503 0.332,-0.735 0.104,-0.237 0.201,-0.449 0.285,-0.639 0.084,-0.192 0.154,-0.351 0.207,-0.479 0.007,0 0.015,-0.001 0.025,-0.003 0.011,-0.001 0.02,-0.001 0.025,0.003 0,0.2 0.001,0.424 0.001,0.678 0.001,0.254 0.004,0.518 0.005,0.792 0,0.276 0.001,0.546 0.001,0.813 0.003,0.266 0.003,0.51 0,0.735 -0.001,0.222 -0.002,0.409 -0.007,0.559 0.001,0.135 -0.014,0.236 -0.047,0.31 -0.03,0.073 -0.087,0.125 -0.167,0.155 -0.067,0.02 -0.144,0.036 -0.23,0.054 -0.086,0.017 -0.186,0.034 -0.302,0.053 -0.012,0.018 -0.022,0.054 -0.026,0.103 -0.004,0.05 -0.004,0.101 0,0.153 0.004,0.049 0.015,0.082 0.026,0.102 0.198,-0.001 0.41,-0.006 0.637,-0.013 0.225,-0.009 0.473,-0.015 0.737,-0.015 0.28,0 0.518,0.002 0.715,0.007 0.195,0.007 0.363,0.008 0.501,0.014 0.135,0.004 0.253,0.007 0.351,0.007 0.016,-0.021 0.03,-0.057 0.037,-0.107 0.009,-0.048 0.012,-0.097 0.012,-0.144 -0.001,-0.05 -0.008,-0.087 -0.02,-0.106 -0.12,-0.019 -0.229,-0.04 -0.326,-0.056 -0.095,-0.021 -0.178,-0.037 -0.245,-0.051 -0.089,-0.022 -0.158,-0.061 -0.207,-0.108 -0.047,-0.049 -0.083,-0.108 -0.103,-0.183 -0.02,-0.069 -0.033,-0.15 -0.038,-0.243 -0.009,-0.097 -0.016,-0.232 -0.025,-0.398 -0.009,-0.169 -0.019,-0.361 -0.028,-0.575 -0.007,-0.216 -0.016,-0.441 -0.023,-0.682 -0.009,-0.237 -0.015,-0.476 -0.021,-0.713 -0.007,-0.239 -0.011,-0.467 -0.014,-0.681 -0.005,-0.216 -0.006,-0.406 -0.009,-0.573 0,-0.17 0,-0.304 0.004,-0.4 -0.001,-0.119 0.013,-0.22 0.051,-0.293 0.036,-0.076 0.107,-0.129 0.211,-0.162 0.067,-0.021 0.153,-0.039 0.255,-0.058 0.101,-0.021 0.222,-0.041 0.363,-0.06 0.013,-0.012 0.022,-0.037 0.028,-0.072 0.007,-0.037 0.009,-0.076 0.009,-0.117 0,-0.041 -0.002,-0.078 -0.009,-0.113 -0.008,-0.031 -0.015,-0.048 -0.028,-0.054 -0.125,0 -0.25,0.001 -0.377,0.004 -0.129,0.003 -0.271,0.006 -0.425,0.01 -0.155,0.002 -0.335,0.007 -0.542,0.009 -0.205,0.003 -0.447,0.005 -0.725,0.005 -0.005,0.085 -0.023,0.177 -0.054,0.271 -0.028,0.093 -0.065,0.192 -0.111,0.301 -0.055,0.131 -0.126,0.291 -0.21,0.477 -0.086,0.189 -0.178,0.393 -0.279,0.613 -0.103,0.217 -0.205,0.437 -0.311,0.66 -0.105,0.223 -0.206,0.433 -0.301,0.633 -0.096,0.201 -0.182,0.375 -0.257,0.527 -0.073,0.15 -0.13,0.261 -0.171,0.336 -0.004,0.005 -0.014,0.01 -0.025,0.012 -0.011,0 -0.023,-0.002 -0.032,-0.012 -0.038,-0.076 -0.094,-0.186 -0.162,-0.325 -0.069,-0.143 -0.147,-0.306 -0.236,-0.492 -0.088,-0.186 -0.18,-0.384 -0.279,-0.594 -0.099,-0.21 -0.197,-0.423 -0.296,-0.638 -0.099,-0.214 -0.195,-0.421 -0.282,-0.618 -0.091,-0.198 -0.172,-0.379 -0.245,-0.541 -0.048,-0.1 -0.088,-0.199 -0.12,-0.294 -0.033,-0.097 -0.054,-0.201 -0.064,-0.316 -0.301,0 -0.581,-0.004 -0.842,-0.007 -0.257,-0.005 -0.5,-0.01 -0.724,-0.014 -0.229,-0.006 -0.443,-0.007 -0.649,-0.007 -0.008,0.007 -0.014,0.028 -0.02,0.059 -0.007,0.034 -0.012,0.069 -0.015,0.111 -0.005,0.039 -0.007,0.077 -0.005,0.112 0,0.031 0.005,0.054 0.01,0.066l-0.001 0 0 0zm7.798 0c0.097,0.008 0.184,0.018 0.262,0.031 0.078,0.011 0.15,0.026 0.212,0.044 0.069,0.018 0.132,0.043 0.189,0.069 0.057,0.028 0.111,0.065 0.165,0.117 0.054,0.05 0.114,0.119 0.174,0.21 0.064,0.092 0.136,0.206 0.217,0.353 0.093,0.166 0.191,0.345 0.298,0.543 0.107,0.198 0.215,0.398 0.319,0.598 0.107,0.201 0.205,0.385 0.291,0.558 0.087,0.17 0.154,0.313 0.205,0.424 0.034,0.076 0.062,0.16 0.082,0.245 0.022,0.086 0.034,0.164 0.034,0.238 0,0.138 0.001,0.266 0.001,0.391 0.001,0.126 0.001,0.248 0,0.376 -0.001,0.128 -0.004,0.266 -0.011,0.416 0.001,0.094 -0.008,0.175 -0.02,0.25 -0.017,0.073 -0.046,0.136 -0.09,0.185 -0.043,0.048 -0.106,0.086 -0.191,0.108 -0.072,0.014 -0.164,0.031 -0.271,0.047 -0.108,0.02 -0.23,0.035 -0.365,0.05 -0.011,0.008 -0.019,0.03 -0.024,0.061 -0.007,0.035 -0.01,0.073 -0.01,0.115 -0.001,0.04 0.002,0.077 0.006,0.114 0.005,0.034 0.015,0.056 0.028,0.066 0.098,0 0.194,0 0.293,-0.006 0.097,-0.003 0.2,-0.007 0.314,-0.011 0.111,-0.005 0.24,-0.012 0.382,-0.013 0.144,-0.007 0.309,-0.007 0.499,-0.007 0.149,0 0.297,0 0.45,0.007 0.151,0.001 0.297,0.008 0.44,0.013 0.14,0.004 0.269,0.008 0.385,0.011 0.115,0.006 0.21,0.006 0.283,0.006 0.01,-0.01 0.02,-0.032 0.026,-0.066 0.009,-0.032 0.015,-0.07 0.02,-0.112 0.002,-0.043 0.006,-0.079 0.005,-0.111 0,-0.034 -0.005,-0.057 -0.012,-0.067 -0.121,-0.02 -0.23,-0.036 -0.327,-0.051 -0.1,-0.01 -0.185,-0.028 -0.264,-0.046 -0.088,-0.021 -0.155,-0.056 -0.201,-0.108 -0.044,-0.049 -0.073,-0.114 -0.089,-0.196 -0.018,-0.082 -0.026,-0.178 -0.028,-0.288 -0.003,-0.163 -0.006,-0.314 -0.007,-0.452 -0.001,-0.142 -0.002,-0.277 -0.002,-0.41 0,-0.131 0,-0.266 0,-0.408 0,-0.08 0.007,-0.156 0.022,-0.22 0.015,-0.067 0.039,-0.135 0.075,-0.207 0.044,-0.089 0.101,-0.197 0.175,-0.329 0.071,-0.133 0.15,-0.279 0.238,-0.437 0.087,-0.157 0.178,-0.319 0.273,-0.484 0.094,-0.164 0.187,-0.325 0.277,-0.477 0.091,-0.15 0.176,-0.293 0.254,-0.412 0.093,-0.146 0.174,-0.258 0.245,-0.341 0.069,-0.082 0.141,-0.142 0.21,-0.186 0.071,-0.043 0.151,-0.078 0.243,-0.106 0.06,-0.02 0.127,-0.036 0.206,-0.049 0.079,-0.014 0.162,-0.03 0.249,-0.047 0.009,-0.011 0.016,-0.036 0.021,-0.065 0.004,-0.035 0.007,-0.073 0.007,-0.113 0,-0.042 -0.005,-0.078 -0.011,-0.11 -0.005,-0.031 -0.016,-0.052 -0.027,-0.06 -0.106,0 -0.208,0.002 -0.311,0.008 -0.103,0.004 -0.22,0.008 -0.348,0.014 -0.128,0.003 -0.278,0.007 -0.454,0.007 -0.239,-0.002 -0.458,-0.006 -0.655,-0.015 -0.199,-0.007 -0.368,-0.012 -0.514,-0.014 -0.018,0.01 -0.029,0.041 -0.038,0.089 -0.007,0.045 -0.012,0.092 -0.012,0.144 0,0.051 0.005,0.088 0.011,0.115 0.104,0.017 0.196,0.033 0.277,0.047 0.079,0.013 0.154,0.029 0.226,0.049 0.078,0.018 0.137,0.039 0.17,0.07 0.035,0.028 0.054,0.062 0.055,0.104 0.003,0.044 -0.005,0.091 -0.023,0.147 -0.023,0.073 -0.063,0.17 -0.12,0.291 -0.056,0.12 -0.124,0.258 -0.199,0.409 -0.078,0.152 -0.158,0.309 -0.242,0.466 -0.086,0.157 -0.169,0.311 -0.251,0.458 -0.082,0.143 -0.156,0.271 -0.223,0.383 -0.009,0.005 -0.02,0.007 -0.033,0.012 -0.013,0 -0.024,-0.006 -0.033,-0.012 -0.028,-0.047 -0.07,-0.12 -0.121,-0.219 -0.053,-0.097 -0.116,-0.212 -0.183,-0.342 -0.069,-0.132 -0.139,-0.269 -0.214,-0.414 -0.074,-0.146 -0.146,-0.289 -0.215,-0.428 -0.07,-0.142 -0.133,-0.269 -0.189,-0.386 -0.057,-0.118 -0.1,-0.211 -0.134,-0.285 -0.033,-0.066 -0.045,-0.125 -0.042,-0.175 0.003,-0.052 0.041,-0.085 0.11,-0.107l0.309 -0.067c0.014,-0.012 0.022,-0.034 0.026,-0.066 0.004,-0.034 0.007,-0.067 0.007,-0.11 -0.003,-0.038 -0.007,-0.075 -0.014,-0.11 -0.006,-0.032 -0.015,-0.053 -0.028,-0.063 -0.041,0.002 -0.114,0.005 -0.21,0.007 -0.097,0.003 -0.212,0.007 -0.342,0.009 -0.131,0.006 -0.27,0.008 -0.415,0.008 -0.145,0.002 -0.286,0.005 -0.426,0.005 -0.167,0 -0.33,-0.005 -0.49,-0.007 -0.16,-0.006 -0.311,-0.012 -0.451,-0.015 -0.138,-0.005 -0.262,-0.007 -0.365,-0.007 -0.013,0.014 -0.024,0.044 -0.03,0.092 -0.005,0.046 -0.007,0.095 -0.006,0.146 0.001,0.046 0.006,0.082 0.016,0.111l-0.002 0 0.001 0z"/>
   <path class="fil1" d="M66.773 82.286l0 -9.428 21.641 0 0 19.332c-4.137,2.821 -7.802,4.751 -10.989,5.765 -3.189,1.024 -6.97,1.53 -11.341,1.53 -5.383,0 -9.765,-0.919 -13.153,-2.753 -3.4,-1.828 -6.028,-4.562 -7.888,-8.195 -1.868,-3.63 -2.807,-7.789 -2.807,-12.49 0,-4.95 1.025,-9.258 3.061,-12.92 2.048,-3.655 5.036,-6.431 8.974,-8.33 3.073,-1.468 7.211,-2.196 12.406,-2.196 5.004,0 8.752,0.453 11.243,1.361 2.481,0.909 4.539,2.311 6.187,4.223 1.637,1.9 2.873,4.319 3.696,7.253l-13.515 2.407c-0.559,-1.71 -1.51,-3.02 -2.839,-3.925 -1.321,-0.912 -3.02,-1.365 -5.079,-1.365 -3.073,0 -5.521,1.068 -7.348,3.2 -1.826,2.143 -2.745,5.511 -2.745,10.137 0,4.908 0.93,8.412 2.777,10.514 1.838,2.102 4.412,3.156 7.718,3.156 1.563,0 3.061,-0.232 4.476,-0.685 1.425,-0.454 3.061,-1.226 4.889,-2.314l0 -4.276 -9.365 0 0.001 -0.001 0 0z"/>
   <path class="fil2" d="M76.559 148.462c0,0 52.365,-21.915 52.647,-91.196 -48.441,-36.895 -99.84,-42.387 -99.84,-42.387l-3.801 17.18c0,0 5.349,53.228 7.604,61.396 2.252,8.167 27.882,47.879 27.882,47.879l15.508 7.128 0 0z"/>
   <path class="fil3" d="M124.981 59.277c0,0 -28.445,-25.246 -89.277,-37.637 0.282,100.541 41.959,121.721 41.959,121.721 0,0 44.503,-18.465 47.318,-84.084l0 0z"/>
   <path class="fil3" d="M29.508 14.598c-2.723,2.631 -5.446,5.258 -8.168,7.885 -0.428,13.366 -2.049,99.243 46.222,128.919l9.083 -2.957c-0.186,-0.016 -47.458,-19.635 -47.138,-133.846l0.001 -0.001z"/>
   <path class="fil4" d="M124.981 59.277c0,0 -28.445,-25.246 -89.277,-37.637 0.282,100.541 41.963,121.731 41.963,121.731 0,0 44.499,-18.475 47.314,-84.094l0 0 0 0 0 0z"/>
   <path class="fil5" d="M66.078 72.458c0,-0.038 0,-0.07 0,-0.089 -0.002,-1.336 -0.232,-2.329 -0.71,-2.989 -0.493,-0.678 -1.58,-1.324 -3.355,-1.954 -1.076,-0.385 -2.183,-0.761 -3.305,-1.163 -1.961,-0.707 -3.263,-0.784 -3.82,-0.208 -0.559,0.573 -0.828,2.115 -0.807,4.596 0.014,1.412 0.017,2.815 0.036,4.217 0.027,2.177 0.362,3.742 1.006,4.719 0.634,0.961 1.874,1.708 3.677,2.21 1.075,0.3 2.136,0.588 3.198,0.879 1.561,0.429 2.596,0.501 3.178,0.218 0.557,-0.269 0.853,-0.973 0.862,-2.051 0.002,-0.145 -0.009,-0.401 -0.036,-0.749 -0.002,-0.046 -0.006,-0.081 -0.006,-0.109 -2.06,-0.618 -4.191,-1.253 -6.359,-1.897 0.011,-1.971 -0.012,-3.949 -0.022,-5.942 4.096,1.343 8.018,2.618 11.755,3.86 -0.032,1.514 -0.052,3.014 -0.079,4.52 -0.026,1.49 -0.042,2.969 -0.069,4.449 -0.048,2.522 -0.614,4.165 -1.741,4.932 -1.159,0.788 -3.172,0.824 -6.129,0.113 -1.982,-0.476 -4.008,-0.964 -6.078,-1.461 -1.932,-0.462 -3.408,-0.974 -4.359,-1.533 -0.974,-0.569 -1.799,-1.333 -2.481,-2.287 -0.833,-1.17 -1.449,-2.488 -1.847,-3.994 -0.401,-1.511 -0.623,-3.37 -0.665,-5.546 -0.028,-1.407 -0.048,-2.843 -0.076,-4.256 -0.028,-1.431 -0.057,-2.869 -0.09,-4.316 -0.049,-2.295 0.069,-4.189 0.387,-5.658 0.324,-1.499 0.853,-2.55 1.534,-3.204 1.367,-1.314 3.86,-1.224 7.387,0.184 2.155,0.858 4.291,1.707 6.392,2.536 1.957,0.773 3.397,1.485 4.304,2.135 0.886,0.633 1.602,1.414 2.097,2.28 0.514,0.9 0.88,1.982 1.112,3.229 0.235,1.265 0.344,2.757 0.307,4.509 -0.008,0.405 -0.021,0.731 -0.029,0.949 -0.005,0.22 -0.001,0.418 -0.014,0.616 -1.675,-0.567 -3.404,-1.167 -5.157,-1.744l0.001 0 0.001 -0.001zm12.544 20.943c-1.507,-0.364 -3.02,-0.736 -4.589,-1.12 0.052,-2.172 0.103,-4.36 0.141,-6.565 0.038,-2.196 0.085,-4.434 0.13,-6.674 0.046,-2.263 0.08,-4.547 0.125,-6.838 0.046,-2.306 0.098,-4.634 0.138,-6.96 1.631,0.64 3.212,1.264 4.767,1.876 -0.039,1.673 -0.081,3.346 -0.128,4.997 -0.047,1.645 -0.088,3.287 -0.132,4.913 3.072,1.022 6.025,2.02 8.893,2.984 0.052,-1.528 0.12,-3.068 0.182,-4.621 0.06,-1.562 0.122,-3.129 0.194,-4.717 1.399,0.551 2.754,1.085 4.089,1.615 -0.188,4.165 -0.383,8.263 -0.573,12.316 -0.188,4.01 -0.371,7.956 -0.55,11.86 -1.309,-0.311 -2.63,-0.633 -3.976,-0.959 0.071,-1.563 0.13,-3.136 0.194,-4.7 0.066,-1.583 0.13,-3.183 0.189,-4.769 -2.823,-0.862 -5.773,-1.745 -8.821,-2.653 -0.044,1.687 -0.088,3.372 -0.133,5.041 -0.044,1.669 -0.095,3.331 -0.14,4.976l0 -0.002zm30.216 7.282c-1.536,-0.339 -3.086,-0.704 -4.653,-1.091 -0.915,-2.866 -1.847,-5.825 -2.772,-8.817 -0.951,-3.082 -1.95,-6.259 -2.969,-9.478 -0.163,2.836 -0.332,5.652 -0.488,8.447 -0.155,2.767 -0.299,5.505 -0.454,8.235 -1.205,-0.293 -2.41,-0.586 -3.648,-0.88 0.192,-3.845 0.402,-7.735 0.597,-11.671 0.197,-3.966 0.418,-8.016 0.633,-12.093 1.863,0.741 3.685,1.452 5.497,2.157 0.947,3.327 1.913,6.569 2.834,9.715 0.909,3.103 1.816,6.124 2.685,9.07 0.178,-2.626 0.377,-5.286 0.568,-7.972 0.193,-2.699 0.367,-5.431 0.545,-8.175 1.104,0.43 2.176,0.831 3.273,1.248 -0.313,3.665 -0.585,7.283 -0.858,10.858 -0.27,3.536 -0.539,7.037 -0.79,10.448l0 -0.001z"/>
   <path class="fil1" d="M67.067 71.468c0,-0.036 0,-0.068 0,-0.088 -0.003,-1.335 -0.231,-2.328 -0.71,-2.988 -0.494,-0.676 -1.581,-1.323 -3.355,-1.956 -1.075,-0.382 -2.184,-0.759 -3.305,-1.163 -1.959,-0.708 -3.262,-0.782 -3.821,-0.209 -0.557,0.576 -0.827,2.119 -0.804,4.598 0.012,1.413 0.015,2.817 0.033,4.219 0.03,2.175 0.364,3.738 1.008,4.716 0.634,0.964 1.873,1.708 3.676,2.21 1.076,0.301 2.137,0.587 3.197,0.88 1.562,0.428 2.596,0.501 3.181,0.218 0.556,-0.269 0.853,-0.972 0.861,-2.053 0.001,-0.144 -0.008,-0.4 -0.037,-0.749 -0.003,-0.047 -0.007,-0.078 -0.007,-0.106 -2.057,-0.621 -4.188,-1.254 -6.356,-1.899 0.009,-1.972 -0.013,-3.952 -0.023,-5.942 4.096,1.344 8.018,2.618 11.753,3.858 -0.028,1.517 -0.05,3.016 -0.077,4.519 -0.025,1.493 -0.041,2.971 -0.07,4.451 -0.047,2.522 -0.612,4.167 -1.74,4.935 -1.157,0.787 -3.173,0.823 -6.129,0.113 -1.982,-0.476 -4.008,-0.967 -6.078,-1.463 -1.93,-0.465 -3.409,-0.975 -4.359,-1.533 -0.972,-0.57 -1.797,-1.334 -2.479,-2.287 -0.832,-1.169 -1.449,-2.489 -1.849,-3.995 -0.4,-1.51 -0.622,-3.368 -0.665,-5.547 -0.025,-1.404 -0.047,-2.842 -0.076,-4.253 -0.028,-1.43 -0.057,-2.869 -0.088,-4.315 -0.051,-2.297 0.068,-4.19 0.386,-5.66 0.323,-1.498 0.855,-2.55 1.534,-3.202 1.369,-1.315 3.859,-1.225 7.387,0.182 2.156,0.857 4.293,1.706 6.392,2.535 1.956,0.775 3.397,1.487 4.304,2.133 0.885,0.636 1.603,1.416 2.097,2.283 0.513,0.899 0.881,1.982 1.112,3.228 0.236,1.265 0.343,2.758 0.308,4.509 -0.009,0.406 -0.023,0.732 -0.029,0.95 -0.007,0.218 -0.002,0.416 -0.015,0.615 -1.676,-0.565 -3.404,-1.166 -5.155,-1.745l-0.001 0.001 -0.001 0zm12.545 20.946c-1.507,-0.367 -3.021,-0.739 -4.592,-1.121 0.053,-2.172 0.104,-4.358 0.143,-6.566 0.039,-2.196 0.084,-4.433 0.13,-6.676 0.045,-2.259 0.08,-4.545 0.125,-6.838 0.046,-2.305 0.098,-4.632 0.137,-6.959 1.632,0.639 3.214,1.266 4.767,1.877 -0.038,1.675 -0.079,3.344 -0.127,4.996 -0.048,1.643 -0.09,3.289 -0.133,4.913 3.074,1.023 6.026,2.023 8.893,2.982 0.052,-1.525 0.121,-3.065 0.182,-4.618 0.063,-1.562 0.123,-3.13 0.194,-4.716 1.399,0.551 2.755,1.085 4.089,1.614 -0.187,4.166 -0.382,8.26 -0.573,12.316 -0.189,4.011 -0.371,7.955 -0.55,11.861 -1.308,-0.312 -2.628,-0.634 -3.975,-0.96 0.071,-1.564 0.13,-3.134 0.194,-4.7 0.065,-1.585 0.129,-3.184 0.187,-4.769 -2.822,-0.861 -5.773,-1.745 -8.819,-2.654 -0.046,1.688 -0.09,3.374 -0.134,5.042 -0.046,1.669 -0.095,3.33 -0.14,4.976l0.001 0 0.001 0zm30.215 7.28c-1.536,-0.337 -3.085,-0.701 -4.653,-1.092 -0.915,-2.865 -1.848,-5.823 -2.771,-8.817 -0.951,-3.082 -1.952,-6.258 -2.971,-9.477 -0.162,2.836 -0.331,5.652 -0.487,8.447 -0.155,2.767 -0.298,5.505 -0.454,8.236 -1.206,-0.296 -2.411,-0.587 -3.648,-0.883 0.191,-3.843 0.402,-7.734 0.597,-11.669 0.197,-3.966 0.42,-8.015 0.632,-12.095 1.865,0.743 3.685,1.454 5.499,2.159 0.947,3.328 1.913,6.569 2.834,9.716 0.908,3.101 1.816,6.12 2.686,9.071 0.176,-2.626 0.375,-5.287 0.567,-7.973 0.192,-2.699 0.367,-5.432 0.543,-8.174 1.105,0.427 2.176,0.829 3.274,1.247 -0.312,3.663 -0.584,7.284 -0.857,10.854 -0.271,3.54 -0.539,7.041 -0.791,10.45z"/>
   <path class="fil6" d="M201.624 77.307l0 7.215c-0.955,0.173 -1.766,0.297 -2.427,0.371 -0.663,0.075 -1.263,0.111 -1.803,0.111 -0.866,0 -1.601,-0.079 -2.201,-0.239 -0.599,-0.16 -1.09,-0.406 -1.471,-0.733 -0.583,-0.513 -0.997,-1.238 -1.244,-2.172 -0.243,-0.936 -0.364,-2.44 -0.364,-4.515 0,-1.432 0.075,-2.543 0.226,-3.331 0.153,-0.794 0.402,-1.451 0.757,-1.98 0.366,-0.543 0.881,-0.955 1.546,-1.228 0.665,-0.273 1.481,-0.407 2.442,-0.407 1.477,0 2.606,0.367 3.379,1.107 0.773,0.741 1.161,1.819 1.161,3.238l0 0.212 -2.917 0 0 -0.172c0,-0.803 -0.141,-1.399 -0.42,-1.79 -0.281,-0.39 -0.711,-0.583 -1.287,-0.583 -0.726,0 -1.227,0.322 -1.499,0.967 -0.274,0.649 -0.412,2.068 -0.412,4.267 0,2.317 0.165,3.778 0.496,4.377 0.333,0.602 0.951,0.901 1.856,0.901 0.201,0 0.417,-0.017 0.652,-0.05 0.236,-0.028 0.509,-0.085 0.824,-0.161l0 -3.176 -1.638 0 0 -2.229 4.345 0 0 0 -0.001 0zm1.852 3.863l0 -2.676 4.858 0 0 2.676 -4.858 0zm7.601 3.614l0 -11.877 -3.235 0 0 -2.334 9.547 0 0 2.334 -3.256 0 0 11.877 -3.056 0zm7.709 0l0 -14.211 7.679 0 0 2.196 -4.683 0 0 3.392 4.31 0 0 2.187 -4.31 0 0 4.144 4.857 0 0 2.292 -7.853 0 0 0zm18.836 -4.859c0.012,0.079 0.02,0.162 0.023,0.252 0.002,0.092 0.006,0.227 0.006,0.405 0,1.414 -0.381,2.502 -1.147,3.273 -0.763,0.765 -1.854,1.15 -3.275,1.15 -0.655,0 -1.268,-0.086 -1.836,-0.259 -0.569,-0.175 -1.022,-0.411 -1.366,-0.713 -0.581,-0.509 -0.996,-1.229 -1.242,-2.159 -0.244,-0.931 -0.366,-2.44 -0.366,-4.53 0,-1.431 0.077,-2.543 0.227,-3.33 0.153,-0.794 0.402,-1.45 0.757,-1.979 0.353,-0.532 0.855,-0.939 1.506,-1.219 0.655,-0.28 1.422,-0.418 2.301,-0.418 1.441,0 2.523,0.367 3.252,1.1 0.73,0.734 1.095,1.823 1.095,3.265l0 0.267 -2.98 0 0 -0.267c0,-0.753 -0.115,-1.309 -0.353,-1.672 -0.233,-0.364 -0.591,-0.547 -1.074,-0.547 -0.669,0 -1.125,0.319 -1.379,0.956 -0.25,0.636 -0.375,2.115 -0.375,4.433 0,1.944 0.132,3.238 0.391,3.889 0.26,0.643 0.727,0.964 1.403,0.964 0.482,0 0.844,-0.197 1.085,-0.587 0.239,-0.392 0.361,-0.984 0.361,-1.784 0,-0.049 -0.004,-0.128 -0.009,-0.232 -0.008,-0.11 -0.012,-0.191 -0.012,-0.259l3.008 0 -0.001 0 0 0.001zm-82.468 31.061l-3.353 0 0 -16.117 3.353 0 0 6.271 3.675 0 0 -6.271 3.374 0 0 16.117 -3.374 0 0 -7.134 -3.675 0 0 7.134zm13.567 -6.064l3.439 0 -1.672 -6.982 -1.767 6.982 0 0zm4.915 6.064l-0.86 -3.583 -4.677 0 -0.856 3.583 -3.386 0 4.546 -16.117 4.293 0 4.481 16.117 -3.541 0 0 0 0 0zm10.009 -16.117c1.977,0 3.317,0.298 4.026,0.895 0.703,0.598 1.058,1.68 1.058,3.245 0,1.238 -0.179,2.164 -0.541,2.775 -0.362,0.613 -0.962,1.026 -1.808,1.236 0.962,0.198 1.618,0.537 1.965,1.022 0.351,0.485 0.527,1.42 0.527,2.805 0,0.084 -0.004,0.221 -0.015,0.403 -0.012,0.183 -0.02,0.318 -0.02,0.406 0,0.734 0.037,1.365 0.105,1.894 0.07,0.527 0.18,1.007 0.324,1.436l-3.509 0c-0.155,-0.526 -0.235,-1.586 -0.251,-3.188 -0.007,-0.548 -0.015,-0.97 -0.022,-1.269 -0.023,-0.802 -0.172,-1.364 -0.448,-1.693 -0.28,-0.328 -0.742,-0.491 -1.391,-0.491l-1.41 0 0 6.641 -3.377 0 0 -16.117 4.787 0 0 0 0 0zm-1.41 6.962l0.831 0c0.903,0 1.534,-0.174 1.888,-0.515 0.354,-0.341 0.53,-0.942 0.53,-1.79 0,-0.824 -0.161,-1.384 -0.482,-1.688 -0.321,-0.299 -0.943,-0.453 -1.871,-0.453l-0.896 0 0 4.446 0 0zm12.85 -4.514l0 11.145 1.451 0c1.07,0 1.808,-0.354 2.211,-1.067 0.407,-0.71 0.608,-2.211 0.608,-4.507 0,-2.293 -0.201,-3.797 -0.608,-4.504 -0.402,-0.713 -1.141,-1.067 -2.211,-1.067l-1.451 0 0 0.001 0 -0.001zm-3.42 -2.448l5.322 0c2.075,0 3.532,0.594 4.376,1.783 0.84,1.186 1.261,3.278 1.261,6.282 0,2.995 -0.422,5.083 -1.261,6.271 -0.844,1.189 -2.301,1.781 -4.376,1.781l-5.322 0 0 -16.117 0 0zm15.617 16.117l-3.487 -16.117 3.521 0 1.157 7.231c0.089,0.564 0.198,1.396 0.327,2.505 0.131,1.108 0.262,2.338 0.397,3.694 0.129,-1.11 0.282,-2.18 0.458,-3.217 0.176,-1.04 0.368,-2.046 0.588,-3.02l1.586 -7.193 3.925 0 1.432 7.277c0.108,0.582 0.242,1.408 0.399,2.478 0.157,1.067 0.322,2.291 0.496,3.675 0.108,-0.948 0.249,-1.934 0.425,-2.965 0.175,-1.024 0.392,-2.117 0.646,-3.272l1.585 -7.193 2.958 0 -3.603 16.117 -3.761 0 -1.768 -8.544c-0.119,-0.56 -0.231,-1.238 -0.346,-2.038 -0.114,-0.796 -0.228,-1.744 -0.344,-2.845 -0.085,0.684 -0.205,1.419 -0.349,2.192 -0.147,0.781 -0.337,1.688 -0.567,2.714l-1.96 8.521 -3.715 0 0 0zm20.914 -6.064l3.44 0 -1.671 -6.982 -1.769 6.982zm4.918 6.064l-0.862 -3.583 -4.678 0 -0.854 3.583 -3.387 0 4.548 -16.117 4.292 0 4.48 16.117 -3.539 0zm10.006 -16.117c1.977,0 3.317,0.298 4.026,0.895 0.706,0.598 1.06,1.68 1.06,3.245 0,1.238 -0.18,2.164 -0.542,2.775 -0.362,0.613 -0.962,1.026 -1.81,1.236 0.963,0.198 1.62,0.537 1.966,1.022 0.351,0.485 0.526,1.42 0.526,2.805 0,0.084 -0.004,0.221 -0.014,0.403 -0.01,0.183 -0.018,0.318 -0.018,0.406 0,0.734 0.037,1.365 0.104,1.894 0.071,0.527 0.178,1.007 0.323,1.436l-3.51 0c-0.151,-0.526 -0.234,-1.586 -0.249,-3.188 -0.007,-0.548 -0.014,-0.97 -0.022,-1.269 -0.023,-0.802 -0.172,-1.364 -0.448,-1.693 -0.28,-0.328 -0.743,-0.491 -1.392,-0.491l-1.411 0 0 6.641 -3.374 0 0 -16.117 4.785 0 0 0 0 0zm-1.41 6.962l0.833 0c0.903,0 1.534,-0.174 1.888,-0.515 0.353,-0.341 0.53,-0.942 0.53,-1.79 0,-0.824 -0.161,-1.384 -0.483,-1.688 -0.319,-0.299 -0.942,-0.453 -1.871,-0.453l-0.897 0 0 4.446 0 0zm9.204 9.155l0 -16.117 8.709 0 0 2.493 -5.311 0 0 3.846 4.887 0 0 2.481 -4.887 0 0 4.699 5.509 0 0 2.598 -8.908 0 0.001 0 0 0zm21.951 -9.373l0.701 0 0 -2.175 3.222 0 0 2.175 1.99 0 0 2.26 -1.99 0 0 7.113 -5.124 0c-0.926,0 -1.623,-0.061 -2.093,-0.19 -0.47,-0.126 -0.884,-0.343 -1.243,-0.639 -0.443,-0.365 -0.766,-0.84 -0.971,-1.426 -0.207,-0.584 -0.308,-1.343 -0.308,-2.269 0,-1.076 0.239,-1.908 0.717,-2.499 0.477,-0.592 1.231,-0.979 2.257,-1.172 -0.872,-0.258 -1.501,-0.699 -1.873,-1.318 -0.378,-0.618 -0.564,-1.53 -0.564,-2.723 0,-1.377 0.384,-2.374 1.153,-2.985 0.769,-0.611 2.022,-0.918 3.756,-0.918l0.918 0 0 2.516 -0.548 0c-0.682,0 -1.163,0.141 -1.443,0.422 -0.277,0.287 -0.415,0.785 -0.415,1.501 0,0.802 0.154,1.389 0.455,1.765 0.301,0.376 0.769,0.563 1.403,0.563l0 -0.001zm0.701 6.895l0 -4.635 -0.721 0c-0.914,0 -1.536,0.165 -1.871,0.498 -0.337,0.333 -0.504,0.928 -0.504,1.787 0,0.895 0.153,1.509 0.455,1.846 0.303,0.335 0.921,0.504 1.854,0.504l0.787 0 0 0 0 0zm-122.169 29.307l0 -16.118 4.525 0 3.082 8.371c0.362,0.976 0.686,1.928 0.965,2.856 0.28,0.928 0.519,1.843 0.716,2.738 -0.079,-0.694 -0.14,-1.422 -0.186,-2.188 -0.04,-0.772 -0.064,-1.601 -0.064,-2.49l-0.197 -9.287 3.115 0 0 16.117 -4.416 0 -3.264 -8.818c-0.243,-0.663 -0.5,-1.458 -0.776,-2.382 -0.279,-0.927 -0.564,-1.945 -0.855,-3.062 0.079,1.022 0.142,1.919 0.187,2.69 0.041,0.773 0.067,1.426 0.075,1.966l0.186 9.606 -3.093 0 0 0.001zm14.82 0l0 -16.118 8.71 0 0 2.492 -5.311 0 0 3.845 4.886 0 0 2.481 -4.886 0 0 4.701 5.509 0 0 2.599 -8.908 0 0 0 0 0zm13.723 0l0 -13.473 -3.67 0 0 -2.645 10.828 0 0 2.645 -3.692 0 0 13.473 -3.466 0zm10.798 0l-3.486 -16.118 3.521 0 1.157 7.232c0.089,0.563 0.197,1.395 0.327,2.505 0.131,1.105 0.261,2.337 0.396,3.693 0.13,-1.11 0.283,-2.179 0.458,-3.217 0.176,-1.039 0.37,-2.048 0.589,-3.021l1.585 -7.191 3.926 0 1.432 7.275c0.108,0.583 0.242,1.408 0.398,2.477 0.157,1.067 0.322,2.291 0.497,3.677 0.107,-0.949 0.249,-1.934 0.425,-2.963 0.175,-1.026 0.391,-2.119 0.644,-3.275l1.586 -7.191 2.959 0 -3.604 16.117 -3.759 0 -1.769 -8.546c-0.12,-0.561 -0.231,-1.238 -0.347,-2.037 -0.112,-0.798 -0.228,-1.746 -0.343,-2.845 -0.085,0.682 -0.205,1.417 -0.351,2.193 -0.145,0.781 -0.336,1.685 -0.566,2.711l-1.958 8.524 -3.717 0 0 0zm23.161 0.25c-0.742,0 -1.436,-0.097 -2.077,-0.296 -0.645,-0.198 -1.161,-0.467 -1.543,-0.808 -0.666,-0.574 -1.139,-1.41 -1.426,-2.505 -0.287,-1.093 -0.433,-2.717 -0.433,-4.881 0,-1.676 0.085,-2.984 0.262,-3.924 0.175,-0.941 0.462,-1.706 0.862,-2.293 0.394,-0.599 0.964,-1.058 1.711,-1.379 0.746,-0.318 1.62,-0.481 2.626,-0.481 0.769,0 1.477,0.101 2.114,0.303 0.642,0.199 1.169,0.478 1.576,0.837 0.633,0.558 1.085,1.339 1.357,2.33 0.273,0.997 0.41,2.465 0.41,4.41 0,2.025 -0.085,3.511 -0.26,4.454 -0.176,0.943 -0.472,1.723 -0.885,2.343 -0.397,0.595 -0.967,1.061 -1.716,1.394 -0.75,0.333 -1.608,0.497 -2.578,0.497l0 -0.001 0 0zm-2.092 -8.349c0,2.372 0.149,3.938 0.447,4.697 0.299,0.757 0.832,1.138 1.605,1.138 0.797,0 1.351,-0.365 1.652,-1.098 0.302,-0.734 0.451,-2.368 0.451,-4.901 0,-2.241 -0.149,-3.731 -0.448,-4.458 -0.298,-0.727 -0.835,-1.091 -1.616,-1.091 -0.789,0 -1.337,0.371 -1.64,1.114 -0.303,0.742 -0.452,2.275 -0.452,4.599l0.001 0 0 0zm14.939 -8.019c1.977,0 3.316,0.298 4.025,0.895 0.705,0.596 1.059,1.678 1.059,3.245 0,1.238 -0.178,2.164 -0.541,2.775 -0.363,0.612 -0.962,1.028 -1.81,1.236 0.964,0.197 1.62,0.536 1.966,1.023 0.351,0.483 0.527,1.418 0.527,2.805 0,0.085 -0.004,0.218 -0.015,0.4 -0.011,0.184 -0.018,0.318 -0.018,0.408 0,0.734 0.037,1.364 0.103,1.896 0.071,0.524 0.18,1.005 0.325,1.434l-3.511 0c-0.153,-0.526 -0.234,-1.588 -0.25,-3.19 -0.007,-0.548 -0.015,-0.971 -0.022,-1.268 -0.023,-0.8 -0.172,-1.365 -0.448,-1.693 -0.279,-0.327 -0.743,-0.493 -1.391,-0.493l-1.411 0 0 6.644 -3.374 0 0 -16.117 4.785 0 0 0 0.001 0zm-1.411 6.96l0.833 0c0.902,0 1.534,-0.172 1.887,-0.516 0.354,-0.339 0.529,-0.939 0.529,-1.789 0,-0.824 -0.159,-1.385 -0.48,-1.688 -0.321,-0.3 -0.944,-0.454 -1.873,-0.454l-0.895 0 0 4.447 -0.001 0 0 0zm9.202 9.158l0 -16.118 3.355 0 0 7.004 4.185 -7.004 3.52 0 -4.653 7.409 4.653 8.709 -3.9 0 -3.805 -7.835 0 7.835 -3.355 0 0 0zm12.199 0l0 -16.118 3.29 0 0 16.118 -3.29 0zm6.196 0l0 -16.118 4.525 0 3.08 8.371c0.363,0.976 0.686,1.928 0.965,2.856 0.282,0.928 0.52,1.843 0.716,2.738 -0.076,-0.694 -0.14,-1.422 -0.186,-2.188 -0.04,-0.772 -0.062,-1.601 -0.062,-2.49l-0.197 -9.287 3.114 0 0 16.117 -4.418 0 -3.262 -8.818c-0.243,-0.663 -0.501,-1.458 -0.776,-2.382 -0.281,-0.927 -0.564,-1.945 -0.855,-3.062 0.078,1.022 0.141,1.919 0.187,2.69 0.041,0.773 0.066,1.426 0.074,1.966l0.187 9.606 -3.093 0 0.001 0.001zm25.364 -8.478l0 8.18c-1.085,0.198 -2.003,0.339 -2.752,0.421 -0.755,0.085 -1.432,0.128 -2.045,0.128 -0.984,0 -1.816,-0.089 -2.499,-0.275 -0.679,-0.179 -1.235,-0.457 -1.668,-0.83 -0.66,-0.581 -1.129,-1.402 -1.409,-2.463 -0.277,-1.062 -0.414,-2.766 -0.414,-5.12 0,-1.623 0.085,-2.883 0.257,-3.781 0.172,-0.897 0.455,-1.645 0.858,-2.239 0.413,-0.621 1,-1.086 1.753,-1.396 0.753,-0.309 1.679,-0.464 2.772,-0.464 1.674,0 2.954,0.42 3.83,1.258 0.877,0.839 1.317,2.064 1.317,3.672l0 0.242 -3.309 0 0 -0.198c0,-0.91 -0.16,-1.586 -0.478,-2.03 -0.317,-0.439 -0.805,-0.66 -1.458,-0.66 -0.824,0 -1.392,0.365 -1.701,1.096 -0.31,0.734 -0.467,2.346 -0.467,4.838 0,2.631 0.187,4.285 0.564,4.966 0.377,0.683 1.078,1.02 2.102,1.02 0.23,0 0.476,-0.017 0.74,-0.055 0.269,-0.034 0.577,-0.095 0.937,-0.183l0 -3.602 -1.859 0 0 -2.526 4.929 0 0 0.001z"/>
  </g>
 </g>
</svg>
